<svg width="95" height="80" viewBox="0 0 95 80" fill="none" xmlns="http://www.w3.org/2000/svg">
<path d="M82.4391 48.925L85.8867 48.1967C86.6007 46.6881 87.2291 45.1405 87.769 43.5613L86.1881 43.3882L87.9533 43.0153C88.6015 41.056 88.9069 39.7176 88.9069 39.7176C88.9069 39.7176 81.9097 41.2604 76.4591 44.8678L75.4921 49.2877L75.1381 45.8095C74.5401 46.267 73.9715 46.7616 73.4355 47.2905C68.049 52.6404 65.4259 58.7351 67.5765 60.9034C69.7272 63.0717 75.8372 60.4924 81.2236 55.1424C82.8935 53.4839 84.2661 51.3712 85.3657 49.2454L82.4391 48.925Z" fill="#E6E6E6"/>
<path d="M76.6118 24.5284L81.9464 20.5578C81.9795 17.4089 81.8353 14.2607 81.5143 11.1284L78.6679 12.0802L81.3993 10.0473C80.964 6.17801 80.4311 3.64349 80.4311 3.64349C80.4311 3.64349 69.6553 11.813 63.1596 22.2987L64.9905 30.6361L61.6385 24.9556C60.9747 26.2118 60.3904 27.5084 59.889 28.8379C54.8787 42.259 55.1927 54.7739 60.5903 56.7909C65.9879 58.8078 74.4252 49.563 79.4355 36.142C80.9887 31.9813 81.6741 27.2772 81.8811 22.7662L76.6118 24.5284Z" fill="#DCDCDC"/>
<path d="M34.1721 27.161L33.7464 20.2176C30.9646 18.3889 28.0802 16.7162 25.107 15.2073L24.2964 18.2453L24.0784 14.6903C20.3832 12.8604 17.8184 11.8789 17.8184 11.8789C17.8184 11.8789 18.811 25.9896 24.356 37.6736L32.8385 40.8341L25.8338 40.5248C26.5646 41.8243 27.3778 43.0774 28.2685 44.2765C37.2895 56.3365 48.6047 63.2136 53.5416 59.6368C58.4786 56.06 55.1678 43.3839 46.1468 31.3238C43.3502 27.5851 39.5649 24.2962 35.6728 21.5368L34.1721 27.161Z" fill="#EEEEEE"/>
<path d="M53.1001 21.5176L56.0419 15.3237C54.7684 12.3271 53.3429 9.41209 51.772 6.59268L49.7199 8.79286L51.2262 5.62158C49.2524 2.1566 47.7466 0 47.7466 0C47.7466 0 41.8657 12.6526 40.62 25.5451L45.6403 32.6038L40.4116 28.7549C40.3606 30.2473 40.3946 31.7417 40.5136 33.2293C41.7577 48.2233 47.2019 59.9297 52.6735 59.3763C58.1451 58.8229 61.5721 46.2193 60.3279 31.2253C59.9422 26.577 58.5862 21.8102 56.899 17.4445L53.1001 21.5176Z" fill="#E6E6E6"/>
<path d="M32.5696 74.609C38.5608 74.609 43.4176 73.219 43.4176 71.5045C43.4176 69.7899 38.5608 68.3999 32.5696 68.3999C26.5785 68.3999 21.7217 69.7899 21.7217 71.5045C21.7217 73.219 26.5785 74.609 32.5696 74.609Z" fill="#E6E6E6"/>
<path d="M76.1825 79.859C82.1736 79.859 87.0304 78.4691 87.0304 76.7545C87.0304 75.0399 82.1736 73.6499 76.1825 73.6499C70.1913 73.6499 65.3345 75.0399 65.3345 76.7545C65.3345 78.4691 70.1913 79.859 76.1825 79.859Z" fill="#E6E6E6"/>
<path d="M74.995 50.1615C80.9861 50.1615 85.8429 48.7716 85.8429 47.057C85.8429 45.3424 80.9861 43.9524 74.995 43.9524C69.0038 43.9524 64.147 45.3424 64.147 47.057C64.147 48.7716 69.0038 50.1615 74.995 50.1615Z" fill="#E6E6E6"/>
<path d="M86.6148 64.0962C91.151 64.0962 94.8283 63.0438 94.8283 61.7456C94.8283 60.4474 91.151 59.395 86.6148 59.395C82.0787 59.395 78.4014 60.4474 78.4014 61.7456C78.4014 63.0438 82.0787 64.0962 86.6148 64.0962Z" fill="#E6E6E6"/>
<path d="M5.42398 65.1417C8.41957 65.1417 10.848 64.3871 10.848 63.4563C10.848 62.5256 8.41957 61.771 5.42398 61.771C2.4284 61.771 0 62.5256 0 63.4563C0 64.3871 2.4284 65.1417 5.42398 65.1417Z" fill="#E6E6E6"/>
<path d="M26.8063 58.0142C29.8019 58.0142 32.2303 57.2597 32.2303 56.3289C32.2303 55.3981 29.8019 54.6436 26.8063 54.6436C23.8107 54.6436 21.3823 55.3981 21.3823 56.3289C21.3823 57.2597 23.8107 58.0142 26.8063 58.0142Z" fill="#E6E6E6"/>
<path d="M56.5942 61.7129C56.5389 61.1947 56.2924 60.716 55.9031 60.3704C55.5137 60.0248 55.0096 59.8372 54.4895 59.8444C54.0156 59.8412 53.5545 59.9976 53.18 60.2884C52.8055 60.5792 52.5394 60.9876 52.4244 61.4481L50.3594 71.4925C50.2912 71.7862 50.2558 72.0866 50.2539 72.3881C50.2539 74.6532 52.1465 76.2272 54.4895 76.2272C56.8325 76.2272 58.7262 74.6532 58.7262 72.3881C58.7249 72.0252 58.6757 71.664 58.5798 71.3141L56.5942 61.7129Z" fill="#3F3D56"/>
<path d="M72.2149 66.2053C72.0048 66.0209 71.7789 65.8554 71.5398 65.7109L63.6507 60.1886C62.8826 59.7056 62.0623 59.7192 61.4666 60.3023C61.2066 60.5501 61.0415 60.8814 61 61.2385C60.9586 61.5956 61.0434 61.956 61.2396 62.257L67.1964 70.0989C67.3325 70.2891 67.4843 70.4674 67.6503 70.632C68.6828 71.7878 70.9724 71.8514 72.2307 70.632C73.472 69.392 73.4573 67.1827 72.2149 66.2053Z" fill="#3F3D56"/>
<path d="M78.1433 58.0249H70.1532C69.8971 58.0151 69.6476 58.1071 69.4588 58.2808C69.2701 58.4545 69.1576 58.6959 69.1457 58.9523C69.1416 59.1887 69.2167 59.4198 69.359 59.6085C69.5013 59.7972 69.7026 59.9327 69.9308 59.9933L77.4681 62.3289C78.5631 62.5846 80.0381 61.6072 80.0381 60.3866C80.0381 58.8341 79.1758 58.0249 78.1433 58.0249Z" fill="#3F3D56"/>
<path d="M40.1245 58.9476C40.1161 58.8158 40.0816 58.6869 40.0229 58.5686C39.9643 58.4502 39.8826 58.3448 39.7828 58.2584C39.6829 58.1721 39.5669 58.1065 39.4415 58.0656C39.316 58.0247 39.1837 58.0093 39.0523 58.0203H31.0622C30.0557 58.0203 29.207 59.109 29.207 60.3297C29.207 61.5503 30.6389 62.5845 31.7373 62.3288L39.3881 59.9932C39.6175 59.9398 39.8194 59.8038 39.9551 59.611C40.0909 59.4182 40.1512 59.1821 40.1245 58.9476Z" fill="#3F3D56"/>
<path d="M45.608 60.1979L37.7167 65.6963C37.4716 65.8345 37.2431 66.0004 37.0359 66.1907C36.4557 66.7312 36.1137 67.4805 36.085 68.2736C36.0563 69.0667 36.3433 69.8387 36.8829 70.4199C36.932 70.4728 36.983 70.5239 37.0359 70.5731C37.6549 71.1587 38.4741 71.485 39.3256 71.485C40.177 71.485 40.9962 71.1587 41.6152 70.5731C41.7839 70.4115 41.9359 70.2333 42.0691 70.0412L48.0304 62.2436C48.2301 61.9466 48.317 61.5878 48.2753 61.2321C48.2337 60.8764 48.0663 60.5475 47.8035 60.3047C47.5092 60.0298 47.1272 59.8682 46.7253 59.8487C46.3233 59.8291 45.9275 59.9529 45.608 60.1979Z" fill="#3F3D56"/>
<path d="M57.8825 49.452C57.9741 49.3171 58.0249 49.1587 58.0289 48.9956C58.0289 48.033 56.1352 47.364 53.7922 47.364C51.4492 47.364 49.5566 48.033 49.5566 48.9956C49.56 49.1292 49.5963 49.26 49.6622 49.3762L51.7272 53.645C51.9638 54.0477 52.817 54.3293 53.7922 54.3265C54.8917 54.3265 55.805 53.9782 55.8969 53.5324L57.8825 49.452Z" fill="#3F3D56"/>
<path d="M71.5331 49.7421C70.2748 49.2239 67.9851 49.2509 66.9526 49.7421C66.7963 49.8072 66.6447 49.8829 66.4987 49.9687L60.5419 53.3014C60.1369 53.5653 60.2323 53.9148 60.7688 54.1321C61.4739 54.3769 62.2379 54.3938 62.953 54.1804L70.8421 51.8335C71.0706 51.7754 71.296 51.7053 71.5172 51.6234C72.7596 51.2081 72.7744 50.2691 71.5331 49.7421Z" fill="#3F3D56"/>
<path d="M79.3411 54.0963C79.3411 53.5775 77.8661 53.1621 76.7712 53.2708L69.2339 54.2634C68.7834 54.3267 68.4487 54.4735 68.4487 54.7058C68.4487 54.9382 68.94 55.1 69.4563 55.1H77.4463C78.4788 55.1 79.3411 54.7561 79.3411 54.0963Z" fill="#3F3D56"/>
<path d="M38.6908 54.2636L31.04 53.271C29.9417 53.1624 28.5098 53.6019 28.5098 54.1206C28.5098 54.6394 29.3585 55.1021 30.3649 55.1021H38.3549C38.9109 55.1021 39.4272 54.9495 39.4272 54.708C39.4272 54.4665 39.1889 54.3269 38.6908 54.2636Z" fill="#3F3D56"/>
<path d="M47.1062 54.131C47.6645 53.9103 47.7303 53.5765 47.3332 53.307L41.3718 49.9932C41.2269 49.9057 41.0751 49.8301 40.918 49.7672C39.4351 49.2505 37.8215 49.2505 36.3386 49.7672C36.2858 49.7881 36.2348 49.8098 36.1857 49.8323C35.062 50.3466 35.1305 51.1513 36.3386 51.6296C36.5605 51.715 36.788 51.7852 37.0194 51.8397L44.9107 54.1764C45.6295 54.3903 46.3969 54.3744 47.1062 54.131Z" fill="#3F3D56"/>
<path d="M70.0428 48.7614C70.0428 61.1059 63.1742 61.3342 54.7014 61.3342C46.2285 61.3342 32.3179 58.8921 39.36 48.7614C46.7873 38.0763 59.5293 17.7093 54.7014 16.6306C54.7014 16.6306 70.0428 36.4168 70.0428 48.7614Z" fill="#F9A825"/>
<path opacity="0.5" d="M60.1049 56.3573C60.1049 61.2437 57.3861 61.3341 54.0322 61.3341C50.6784 61.3341 45.1721 60.3674 47.9596 56.3573C50.8996 52.1278 55.9433 44.0659 54.0322 43.6389C54.0322 43.6389 60.1049 51.4709 60.1049 56.3573Z" fill="#FF6584"/>
</svg>
