<svg width="265" height="66" viewBox="0 0 265 66" fill="none" xmlns="http://www.w3.org/2000/svg">
<g filter="url(#filter0_d)">
<path d="M76.7837 15.027C77.7827 15.027 78.5522 15.243 79.0922 15.675C79.6592 16.107 79.9427 16.701 79.9427 17.457C79.9427 17.835 79.8887 18.1995 79.7807 18.5505L78.7277 22.317C78.5387 23.046 78.2552 23.559 77.8772 23.856C77.5262 24.126 77.0132 24.261 76.3382 24.261C75.6902 24.261 75.1772 24.126 74.7992 23.856C74.4482 23.559 74.1782 23.0865 73.9892 22.4385L73.3412 20.13C73.2062 19.644 73.0442 19.32 72.8552 19.158C72.6662 18.996 72.3017 18.915 71.7617 18.915H67.5092L65.4842 26.124H67.2662C67.4552 26.124 67.7117 25.989 68.0357 25.719L69.4127 24.504C69.8177 24.153 70.1687 23.8965 70.4657 23.7345C70.7627 23.5725 71.1272 23.4915 71.5592 23.4915C72.0452 23.4915 72.4367 23.6265 72.7337 23.8965C73.0577 24.1395 73.2197 24.4635 73.2197 24.8685C73.2197 24.9765 73.1927 25.1385 73.1387 25.3545L71.4782 30.984C71.3162 31.578 71.0327 32.0235 70.6277 32.3205C70.2497 32.5905 69.8312 32.7255 69.3722 32.7255C68.6162 32.7255 68.0492 32.334 67.6712 31.551L66.9827 30.1335C66.7937 29.7285 66.4967 29.526 66.0917 29.526H64.5122L62.1227 38.112H65.6867C66.1997 38.112 66.6452 38.0175 67.0232 37.8285C67.4282 37.6125 67.8602 37.248 68.3192 36.735L70.7492 34.062C71.1812 33.603 71.5862 33.279 71.9642 33.09C72.3692 32.874 72.8552 32.766 73.4222 32.766C74.0162 32.766 74.5022 32.901 74.8802 33.171C75.2582 33.441 75.4472 33.846 75.4472 34.386C75.4472 34.602 75.4067 34.8585 75.3257 35.1555L74.1512 39.246C73.8542 40.272 73.4222 40.9875 72.8552 41.3925C72.2882 41.7975 71.4647 42 70.3847 42H51.0662C50.4992 42 50.0672 41.9055 49.7702 41.7165C49.4462 41.5275 49.2842 41.271 49.2842 40.947C49.2842 40.785 49.3247 40.6095 49.4057 40.4205C49.5137 40.1235 49.6892 39.894 49.9322 39.732C50.1752 39.57 50.3237 39.4755 50.3777 39.4485C50.8097 39.1785 51.1607 38.9085 51.4307 38.6385C51.7007 38.3415 51.9302 37.869 52.1192 37.221L57.1007 19.7655C57.2087 19.4145 57.2627 19.0905 57.2627 18.7935C57.2627 18.4695 57.2087 18.1995 57.1007 17.9835C57.0197 17.7675 56.8847 17.538 56.6957 17.295C56.4527 16.944 56.3312 16.6605 56.3312 16.4445C56.3312 16.3635 56.3582 16.215 56.4122 15.999C56.5202 15.648 56.7632 15.405 57.1412 15.27C57.5192 15.108 58.0727 15.027 58.8017 15.027H76.7837ZM102.578 36.411C102.524 36.519 102.497 36.681 102.497 36.897C102.497 37.086 102.538 37.2345 102.619 37.3425C102.727 37.4505 102.862 37.5045 103.024 37.5045C103.348 37.5045 103.618 37.3695 103.834 37.0995C104.077 36.8025 104.239 36.654 104.32 36.654C104.455 36.654 104.563 36.7485 104.644 36.9375C104.725 37.0995 104.765 37.302 104.765 37.545C104.792 38.328 104.536 39.0975 103.996 39.8535C103.456 40.5825 102.659 41.19 101.606 41.676C100.58 42.135 99.338 42.3645 97.88 42.3645C96.098 42.3645 94.6805 41.9595 93.6275 41.1495C92.5745 40.3125 92.0345 39.2055 92.0075 37.8285C92.0075 36.8295 92.2505 35.709 92.7365 34.467L94.964 28.635C95.099 28.284 95.1665 28.0005 95.1665 27.7845C95.1665 27.4335 95.045 27.1635 94.802 26.9745C94.586 26.7585 94.316 26.6505 93.992 26.6505C93.398 26.6505 92.831 26.934 92.291 27.501C91.751 28.041 91.3595 28.716 91.1165 29.526L88.6055 37.788C88.4975 38.085 88.4435 38.3685 88.4435 38.6385C88.4435 38.9625 88.511 39.2325 88.646 39.4485C88.781 39.6375 88.97 39.84 89.213 40.056C89.402 40.218 89.537 40.3665 89.618 40.5015C89.699 40.6365 89.7125 40.7985 89.6585 40.9875C89.5505 41.3385 89.294 41.595 88.889 41.757C88.484 41.919 87.8495 42 86.9855 42H77.7515C77.0495 42 76.55 41.892 76.253 41.676C75.929 41.433 75.8075 41.1225 75.8885 40.7445C75.9965 40.4205 76.28 40.137 76.739 39.894C77.144 39.678 77.4815 39.4215 77.7515 39.1245C78.0215 38.8275 78.251 38.355 78.44 37.707L82.0445 26.0025C82.0985 25.8675 82.1255 25.6785 82.1255 25.4355C82.1255 25.1385 82.058 24.909 81.923 24.747C81.815 24.585 81.626 24.3825 81.356 24.1395C81.086 23.9235 80.897 23.7345 80.789 23.5725C80.681 23.4105 80.6675 23.1945 80.7485 22.9245C80.9105 22.3035 81.761 21.7635 83.3 21.3045C84.839 20.8185 86.4455 20.5755 88.1195 20.5755C89.4695 20.5755 90.536 20.9535 91.319 21.7095C92.102 22.4385 92.453 23.4645 92.372 24.7875C93.479 23.1945 94.6535 22.101 95.8955 21.507C97.1375 20.886 98.4875 20.5755 99.9455 20.5755C101.593 20.5755 102.916 21.075 103.915 22.074C104.941 23.073 105.454 24.369 105.454 25.962C105.454 26.799 105.319 27.6225 105.049 28.4325L102.578 36.411ZM126.263 20.5755C127.694 20.5755 128.882 21.0885 129.827 22.1145C130.772 23.1405 131.245 24.5445 131.245 26.3265C131.245 28.7295 130.408 31.1865 128.734 33.6975C127.06 36.2085 124.94 38.2875 122.375 39.9345C119.81 41.5545 117.313 42.3645 114.883 42.3645C112.561 42.3645 110.671 41.892 109.213 40.947C107.782 40.002 107.066 38.652 107.066 36.897C107.066 36.249 107.188 35.52 107.431 34.71L109.982 26.0025C110.036 25.7865 110.063 25.6245 110.063 25.5165C110.063 25.2465 109.996 25.017 109.861 24.828C109.726 24.639 109.537 24.4365 109.294 24.2205C108.889 23.8695 108.686 23.559 108.686 23.289C108.659 22.911 108.889 22.506 109.375 22.074C109.861 21.642 110.536 21.291 111.4 21.021C112.291 20.724 113.29 20.5755 114.397 20.5755C116.206 20.5755 117.61 21.021 118.609 21.912C119.635 22.776 120.148 23.91 120.148 25.314C120.148 25.935 120.04 26.61 119.824 27.339L117.191 36.006C117.11 36.249 117.07 36.4515 117.07 36.6135C117.07 36.9645 117.191 37.2345 117.434 37.4235C117.677 37.6125 118.015 37.707 118.447 37.707C119.041 37.707 119.729 37.4505 120.512 36.9375C121.322 36.3975 122.119 35.6415 122.902 34.6695C123.685 33.6705 124.319 32.496 124.805 31.146C123.725 30.201 122.956 29.2695 122.497 28.3515C122.065 27.4335 121.849 26.4885 121.849 25.5165C121.849 24.1395 122.227 22.9785 122.983 22.0335C123.739 21.0615 124.832 20.5755 126.263 20.5755ZM150.629 20.5755C152.141 20.5755 153.343 21.0345 154.234 21.9525C155.152 22.8705 155.611 24.0045 155.611 25.3545C155.611 25.8675 155.557 26.34 155.449 26.772C155.179 27.879 154.666 28.7295 153.91 29.3235C153.154 29.9175 152.249 30.2145 151.196 30.2145C150.17 30.2145 149.387 29.9715 148.847 29.4855C148.334 28.9995 147.875 28.3515 147.47 27.5415C147.254 27.0825 147.052 26.745 146.863 26.529C146.674 26.313 146.458 26.205 146.215 26.205C145.945 26.205 145.702 26.313 145.486 26.529C145.297 26.745 145.121 27.123 144.959 27.663L141.841 37.788C141.787 37.923 141.76 38.1255 141.76 38.3955C141.76 38.7465 141.854 39.0435 142.043 39.2865C142.259 39.5025 142.543 39.7185 142.894 39.9345C143.218 40.1505 143.434 40.326 143.542 40.461C143.65 40.596 143.69 40.7715 143.663 40.9875C143.609 41.3385 143.407 41.595 143.056 41.757C142.732 41.919 142.165 42 141.355 42H130.987C130.285 42 129.785 41.892 129.488 41.676C129.164 41.433 129.043 41.1225 129.124 40.7445C129.232 40.4205 129.515 40.137 129.974 39.894C130.379 39.678 130.717 39.4215 130.987 39.1245C131.257 38.8275 131.486 38.355 131.675 37.707L135.28 26.0025C135.334 25.8675 135.361 25.6785 135.361 25.4355C135.361 25.1385 135.293 24.909 135.158 24.747C135.05 24.585 134.861 24.3825 134.591 24.1395C134.321 23.9235 134.132 23.7345 134.024 23.5725C133.916 23.4105 133.903 23.1945 133.984 22.9245C134.146 22.3035 134.996 21.7635 136.535 21.3045C138.074 20.8185 139.681 20.5755 141.355 20.5755C142.462 20.5755 143.38 20.832 144.109 21.345C144.838 21.831 145.31 22.533 145.526 23.451C146.822 21.534 148.523 20.5755 150.629 20.5755ZM192.713 36.411C192.659 36.519 192.632 36.681 192.632 36.897C192.632 37.086 192.673 37.2345 192.754 37.3425C192.862 37.4505 192.997 37.5045 193.159 37.5045C193.483 37.5045 193.753 37.3695 193.969 37.0995C194.212 36.8025 194.374 36.654 194.455 36.654C194.59 36.654 194.698 36.7485 194.779 36.9375C194.86 37.0995 194.9 37.302 194.9 37.545C194.927 38.328 194.671 39.0975 194.131 39.8535C193.591 40.5825 192.794 41.19 191.741 41.676C190.715 42.135 189.473 42.3645 188.015 42.3645C186.233 42.3645 184.816 41.9595 183.763 41.1495C182.71 40.3125 182.17 39.2055 182.143 37.8285C182.143 36.8295 182.386 35.709 182.872 34.467L185.099 28.635C185.234 28.284 185.302 28.0005 185.302 27.7845C185.302 27.4335 185.18 27.1635 184.937 26.9745C184.721 26.7585 184.451 26.6505 184.127 26.6505C183.668 26.6505 183.196 26.853 182.71 27.258C182.224 27.663 181.792 28.2975 181.414 29.1615L179.186 36.411C179.132 36.519 179.105 36.681 179.105 36.897C179.105 37.086 179.146 37.2345 179.227 37.3425C179.335 37.4505 179.47 37.5045 179.632 37.5045C179.956 37.5045 180.226 37.3695 180.442 37.0995C180.685 36.8025 180.847 36.654 180.928 36.654C181.063 36.654 181.171 36.7485 181.252 36.9375C181.333 37.0995 181.373 37.302 181.373 37.545C181.4 38.328 181.144 39.0975 180.604 39.8535C180.064 40.5825 179.267 41.19 178.214 41.676C177.188 42.135 175.946 42.3645 174.488 42.3645C172.706 42.3645 171.289 41.9595 170.236 41.1495C169.183 40.3125 168.643 39.2055 168.616 37.8285C168.616 36.8295 168.859 35.709 169.345 34.467L171.572 28.635C171.707 28.284 171.775 28.0005 171.775 27.7845C171.775 27.4335 171.653 27.1635 171.41 26.9745C171.194 26.7585 170.924 26.6505 170.6 26.6505C170.141 26.6505 169.669 26.853 169.183 27.258C168.697 27.636 168.292 28.257 167.968 29.121L165.295 37.788C165.187 38.085 165.133 38.3685 165.133 38.6385C165.133 38.9625 165.2 39.2325 165.335 39.4485C165.47 39.6375 165.659 39.84 165.902 40.056C166.091 40.218 166.226 40.3665 166.307 40.5015C166.388 40.6365 166.402 40.7985 166.348 40.9875C166.24 41.3385 165.983 41.595 165.578 41.757C165.173 41.919 164.539 42 163.675 42H154.441C153.739 42 153.239 41.892 152.942 41.676C152.618 41.433 152.497 41.1225 152.578 40.7445C152.686 40.4205 152.969 40.137 153.428 39.894C153.833 39.678 154.171 39.4215 154.441 39.1245C154.711 38.8275 154.94 38.355 155.129 37.707L158.734 26.0025C158.788 25.8675 158.815 25.6785 158.815 25.4355C158.815 25.1385 158.747 24.909 158.612 24.747C158.504 24.585 158.315 24.3825 158.045 24.1395C157.775 23.9235 157.586 23.7345 157.478 23.5725C157.37 23.4105 157.357 23.1945 157.438 22.9245C157.6 22.3035 158.45 21.7635 159.989 21.3045C161.528 20.8185 163.135 20.5755 164.809 20.5755C166.132 20.5755 167.171 20.94 167.927 21.669C168.71 22.398 169.088 23.397 169.061 24.666C170.168 23.127 171.329 22.0605 172.544 21.4665C173.786 20.8725 175.123 20.5755 176.554 20.5755C178.12 20.5755 179.389 21.0345 180.361 21.9525C181.36 22.8435 181.913 24.018 182.021 25.476C183.182 23.64 184.424 22.371 185.747 21.669C187.07 20.94 188.515 20.5755 190.081 20.5755C191.728 20.5755 193.051 21.075 194.05 22.074C195.076 23.073 195.589 24.369 195.589 25.962C195.589 26.799 195.454 27.6225 195.184 28.4325L192.713 36.411ZM214.739 21.102C215.252 21.102 215.643 21.21 215.913 21.426C216.21 21.642 216.359 21.939 216.359 22.317C216.359 22.425 216.332 22.614 216.278 22.884C215.927 24.072 215.117 24.666 213.848 24.666H211.499L208.461 34.6695C208.326 35.0745 208.259 35.493 208.259 35.925C208.259 36.411 208.394 36.7485 208.664 36.9375C208.934 37.1265 209.312 37.221 209.798 37.221C210.23 37.221 210.77 37.167 211.418 37.059C211.742 36.978 212.025 36.9375 212.268 36.9375C212.457 36.9375 212.592 37.005 212.673 37.14C212.781 37.248 212.835 37.3965 212.835 37.5855C212.862 38.1255 212.457 38.787 211.62 39.57C210.81 40.326 209.703 40.9875 208.299 41.5545C206.895 42.0945 205.343 42.3645 203.642 42.3645C201.806 42.3645 200.334 41.946 199.227 41.109C198.12 40.272 197.567 39.1245 197.567 37.6665C197.567 36.9915 197.675 36.3435 197.891 35.7225L200.483 27.7035C200.618 27.2445 200.685 26.88 200.685 26.61C200.685 26.07 200.55 25.611 200.28 25.233C200.037 24.855 199.686 24.4635 199.227 24.0585C198.822 23.6805 198.539 23.37 198.377 23.127C198.215 22.857 198.174 22.5465 198.255 22.1955C198.363 21.8445 198.593 21.5745 198.944 21.3855C199.295 21.1965 199.848 21.102 200.604 21.102H202.872L205.424 18.5505C206.315 17.6595 207.125 17.0385 207.854 16.6875C208.61 16.3365 209.582 16.161 210.77 16.161C212.471 16.161 213.321 16.809 213.321 18.105C213.321 18.51 213.267 18.888 213.159 19.239L212.592 21.102H214.739Z" fill="white"/>
</g>
<path d="M63.3742 56.4842C63.3742 56.9027 63.309 57.1997 63.1785 57.3752C63.0525 57.5507 62.8207 57.6384 62.4832 57.6384H58.4197C58.1857 57.6384 57.999 57.5642 57.8595 57.4157C57.72 57.2627 57.6502 57.0557 57.6502 56.7947V48.4922L57.738 48.4044H63.1245C63.1425 48.5079 63.1537 48.6047 63.1582 48.6947C63.1627 48.7847 63.165 48.8679 63.165 48.9444C63.165 49.0164 63.156 49.1109 63.138 49.2279C63.1245 49.3404 63.0997 49.4462 63.0637 49.5452H59.8035C59.7045 49.5452 59.5785 49.5452 59.4255 49.5452C59.2725 49.5452 59.1172 49.5429 58.9597 49.5384C58.9597 49.7184 58.962 49.8669 58.9665 49.9839C58.971 50.0964 58.9732 50.2404 58.9732 50.4159V52.4139C59.1307 52.4094 59.2837 52.4072 59.4322 52.4072C59.5807 52.4027 59.7045 52.4004 59.8035 52.4004H62.3955C62.418 52.4949 62.4337 52.5939 62.4427 52.6974C62.4562 52.8009 62.463 52.8909 62.463 52.9674C62.463 53.0439 62.4562 53.1339 62.4427 53.2374C62.4337 53.3364 62.418 53.4332 62.3955 53.5277H59.8035C59.7045 53.5277 59.5807 53.5277 59.4322 53.5277C59.2837 53.5232 59.1307 53.5209 58.9732 53.5209V55.8699C58.9732 55.9824 58.971 56.0882 58.9665 56.1872C58.962 56.2862 58.9597 56.3942 58.9597 56.5112C59.0902 56.5022 59.2252 56.4954 59.3647 56.4909C59.5087 56.4864 59.6662 56.4842 59.8372 56.4842H63.3742ZM70.3865 56.2344C70.3865 56.4639 70.4 56.6822 70.427 56.8892C70.4585 57.0962 70.5148 57.2784 70.5958 57.4359C70.3798 57.6204 70.1053 57.7127 69.7723 57.7127C69.5203 57.7127 69.3425 57.6429 69.239 57.5034C69.1355 57.3639 69.0838 57.1547 69.0838 56.8757V53.3724C69.0838 52.9044 69.023 52.5647 68.9015 52.3532C68.78 52.1372 68.5483 52.0292 68.2063 52.0292C67.9228 52.0292 67.6168 52.1079 67.2883 52.2654C66.9643 52.4229 66.6785 52.6367 66.431 52.9067V57.6249C66.2555 57.6609 66.0395 57.6789 65.783 57.6789C65.5265 57.6789 65.3083 57.6609 65.1283 57.6249V50.9964L65.2093 50.9154H65.702C65.963 50.9154 66.1475 50.9897 66.2555 51.1382C66.3635 51.2822 66.422 51.4869 66.431 51.7524C66.7235 51.4869 67.0565 51.2709 67.43 51.1044C67.808 50.9334 68.1995 50.8479 68.6045 50.8479C69.0275 50.8479 69.3695 50.9469 69.6305 51.1449C69.8915 51.3384 70.0828 51.6017 70.2043 51.9347C70.3258 52.2632 70.3865 52.6322 70.3865 53.0417V56.2344ZM77.9904 49.1807C77.9904 48.9602 78.0264 48.7667 78.0984 48.6002C78.1794 48.5552 78.2874 48.5169 78.4224 48.4854C78.5574 48.4539 78.6879 48.4382 78.8139 48.4382C78.9309 48.4382 79.0614 48.4539 79.2054 48.4854C79.3539 48.5169 79.4619 48.5552 79.5294 48.6002C79.6059 48.7667 79.6441 48.9602 79.6441 49.1807C79.6441 49.4012 79.6059 49.5947 79.5294 49.7612C79.4664 49.8062 79.3606 49.8444 79.2121 49.8759C79.0636 49.9029 78.9309 49.9164 78.8139 49.9164C78.6879 49.9164 78.5551 49.9029 78.4156 49.8759C78.2806 49.8489 78.1749 49.8107 78.0984 49.7612C78.0264 49.5947 77.9904 49.4012 77.9904 49.1807ZM79.7049 57.6249C79.5294 57.6609 79.3134 57.6789 79.0569 57.6789C78.8004 57.6789 78.5821 57.6609 78.4021 57.6249V52.6232C78.4021 52.3802 78.3594 52.2024 78.2739 52.0899C78.1929 51.9774 78.0421 51.9212 77.8216 51.9212H76.9711L75.1216 57.6249C74.9731 57.6519 74.8134 57.6699 74.6424 57.6789C74.4759 57.6924 74.3161 57.6992 74.1631 57.6992C73.9021 57.6992 73.7041 57.6542 73.5691 57.5642C73.4341 57.4742 73.3149 57.2672 73.2114 56.9432L71.3079 51.0707C71.5869 50.9357 71.8411 50.8682 72.0706 50.8682C72.2506 50.8682 72.3969 50.9109 72.5094 50.9964C72.6264 51.0774 72.7119 51.2192 72.7659 51.4217L73.7109 54.4389C73.8189 54.7854 73.9246 55.1544 74.0281 55.5459C74.1316 55.9374 74.2081 56.2367 74.2576 56.4437C74.2756 56.5157 74.3161 56.5517 74.3791 56.5517L75.9991 51.0234C76.0891 50.9964 76.1904 50.9784 76.3029 50.9694C76.4199 50.9559 76.5211 50.9492 76.6066 50.9492H78.6856C79.0006 50.9492 79.2481 51.0504 79.4281 51.2529C79.6126 51.4509 79.7049 51.7254 79.7049 52.0764V57.6249ZM81.4802 51.5769C81.5117 51.4554 81.5747 51.3249 81.6692 51.1854C81.7637 51.0459 81.865 50.9424 81.973 50.8749C82.2835 50.9469 82.5355 51.0864 82.729 51.2934C82.9225 51.5004 83.0642 51.7592 83.1542 52.0697C83.3117 51.7322 83.5322 51.4487 83.8157 51.2192C84.1037 50.9897 84.4727 50.8749 84.9227 50.8749C85.1252 50.8749 85.357 50.8997 85.618 50.9492C85.618 51.1292 85.5932 51.3362 85.5437 51.5702C85.4942 51.7997 85.4155 52.0044 85.3075 52.1844C85.2175 52.1664 85.1275 52.1552 85.0375 52.1507C84.9475 52.1417 84.8597 52.1349 84.7742 52.1304C84.3917 52.1304 84.0812 52.2384 83.8427 52.4544C83.6087 52.6704 83.4197 52.9202 83.2757 53.2037V57.6249C83.1002 57.6609 82.8865 57.6789 82.6345 57.6789C82.3735 57.6789 82.153 57.6609 81.973 57.6249V52.9607C81.973 52.6097 81.919 52.3194 81.811 52.0899C81.7075 51.8559 81.5972 51.6849 81.4802 51.5769ZM91.8375 54.2972C91.8375 54.9812 91.7272 55.5864 91.5067 56.1129C91.2907 56.6394 90.9667 57.0534 90.5347 57.3549C90.1072 57.6519 89.5762 57.8004 88.9417 57.8004C88.3027 57.8004 87.7695 57.6497 87.342 57.3482C86.9145 57.0467 86.5927 56.6327 86.3767 56.1062C86.1607 55.5797 86.0527 54.9767 86.0527 54.2972C86.0527 53.6177 86.1607 53.0147 86.3767 52.4882C86.5972 51.9572 86.9212 51.5432 87.3487 51.2462C87.7807 50.9447 88.3117 50.7939 88.9417 50.7939C89.5807 50.7939 90.114 50.9447 90.5415 51.2462C90.9735 51.5477 91.2975 51.9617 91.5135 52.4882C91.7295 53.0147 91.8375 53.6177 91.8375 54.2972ZM87.4027 54.2972C87.4027 54.7247 87.4477 55.1297 87.5377 55.5122C87.6322 55.8902 87.7897 56.1984 88.0102 56.4369C88.2352 56.6754 88.5502 56.7947 88.9552 56.7947C89.3512 56.7947 89.6595 56.6754 89.88 56.4369C90.105 56.1984 90.2625 55.8902 90.3525 55.5122C90.4425 55.1297 90.4875 54.7247 90.4875 54.2972C90.4875 53.8742 90.4425 53.4714 90.3525 53.0889C90.2625 52.7064 90.105 52.3959 89.88 52.1574C89.6595 51.9144 89.3512 51.7929 88.9552 51.7929C88.5502 51.7929 88.2352 51.9144 88.0102 52.1574C87.7897 52.3959 87.6322 52.7064 87.5377 53.0889C87.4477 53.4714 87.4027 53.8742 87.4027 54.2972ZM98.7971 56.2344C98.7971 56.4639 98.8106 56.6822 98.8376 56.8892C98.8691 57.0962 98.9254 57.2784 99.0064 57.4359C98.7904 57.6204 98.5159 57.7127 98.1829 57.7127C97.9309 57.7127 97.7531 57.6429 97.6496 57.5034C97.5461 57.3639 97.4944 57.1547 97.4944 56.8757V53.3724C97.4944 52.9044 97.4336 52.5647 97.3121 52.3532C97.1906 52.1372 96.9589 52.0292 96.6169 52.0292C96.3334 52.0292 96.0274 52.1079 95.6989 52.2654C95.3749 52.4229 95.0891 52.6367 94.8416 52.9067V57.6249C94.6661 57.6609 94.4501 57.6789 94.1936 57.6789C93.9371 57.6789 93.7189 57.6609 93.5389 57.6249V50.9964L93.6199 50.9154H94.1126C94.3736 50.9154 94.5581 50.9897 94.6661 51.1382C94.7741 51.2822 94.8326 51.4869 94.8416 51.7524C95.1341 51.4869 95.4671 51.2709 95.8406 51.1044C96.2186 50.9334 96.6101 50.8479 97.0151 50.8479C97.4381 50.8479 97.7801 50.9469 98.0411 51.1449C98.3021 51.3384 98.4934 51.6017 98.6149 51.9347C98.7364 52.2632 98.7971 52.6322 98.7971 53.0417V56.2344ZM104.567 53.3792C104.567 52.8887 104.5 52.5422 104.365 52.3397C104.23 52.1327 104.02 52.0292 103.737 52.0292C103.498 52.0292 103.24 52.1102 102.961 52.2722C102.682 52.4297 102.432 52.6389 102.211 52.8999V57.6249C102.036 57.6609 101.82 57.6789 101.563 57.6789C101.307 57.6789 101.089 57.6609 100.909 57.6249V51.0099L100.99 50.9154H101.482C101.743 50.9154 101.928 50.9897 102.036 51.1382C102.144 51.2867 102.202 51.4959 102.211 51.7659C102.481 51.4869 102.783 51.2642 103.116 51.0977C103.449 50.9312 103.789 50.8479 104.135 50.8479C104.518 50.8479 104.837 50.9402 105.094 51.1247C105.35 51.3047 105.541 51.5454 105.667 51.8469C105.982 51.5544 106.322 51.3159 106.687 51.1314C107.056 50.9424 107.434 50.8479 107.821 50.8479C108.41 50.8479 108.844 51.0527 109.123 51.4622C109.402 51.8717 109.542 52.3689 109.542 52.9539V56.2344C109.542 56.4639 109.555 56.6822 109.582 56.8892C109.614 57.0962 109.67 57.2784 109.751 57.4359C109.535 57.6204 109.261 57.7127 108.928 57.7127C108.676 57.7127 108.498 57.6429 108.394 57.5034C108.291 57.3639 108.239 57.1547 108.239 56.8757V53.3657C108.239 52.8752 108.169 52.5309 108.03 52.3329C107.895 52.1304 107.686 52.0292 107.402 52.0292C107.168 52.0292 106.912 52.1079 106.633 52.2654C106.358 52.4184 106.106 52.6299 105.877 52.8999C105.877 52.9134 105.877 52.9292 105.877 52.9472V57.6249C105.697 57.6609 105.481 57.6789 105.229 57.6789C104.968 57.6789 104.747 57.6609 104.567 57.6249V53.3792ZM116.452 57.0377C116.133 57.2627 115.75 57.4472 115.305 57.5912C114.864 57.7307 114.409 57.8004 113.941 57.8004C113.239 57.8004 112.686 57.6362 112.281 57.3077C111.88 56.9792 111.597 56.5494 111.43 56.0184C111.264 55.4874 111.181 54.9159 111.181 54.3039C111.181 53.6334 111.286 53.0349 111.498 52.5084C111.709 51.9774 112.022 51.5589 112.436 51.2529C112.85 50.9469 113.363 50.7939 113.975 50.7939C114.556 50.7939 115.044 50.9244 115.44 51.1854C115.836 51.4419 116.135 51.7884 116.338 52.2249C116.54 52.6569 116.641 53.1407 116.641 53.6762C116.641 53.8832 116.632 54.0609 116.614 54.2094C116.601 54.3579 116.578 54.5244 116.547 54.7089H112.544C112.567 55.2939 112.693 55.7754 112.922 56.1534C113.152 56.5314 113.557 56.7204 114.137 56.7204C114.479 56.7204 114.808 56.6709 115.123 56.5719C115.442 56.4684 115.746 56.3424 116.034 56.1939C116.146 56.2974 116.239 56.4302 116.311 56.5922C116.387 56.7542 116.434 56.9027 116.452 57.0377ZM113.975 51.7659C113.525 51.7659 113.181 51.9437 112.942 52.2992C112.704 52.6502 112.571 53.1339 112.544 53.7504H115.372V53.5749C115.372 53.0844 115.264 52.6614 115.048 52.3059C114.832 51.9459 114.475 51.7659 113.975 51.7659ZM123.675 56.2344C123.675 56.4639 123.688 56.6822 123.715 56.8892C123.747 57.0962 123.803 57.2784 123.884 57.4359C123.668 57.6204 123.393 57.7127 123.06 57.7127C122.808 57.7127 122.631 57.6429 122.527 57.5034C122.424 57.3639 122.372 57.1547 122.372 56.8757V53.3724C122.372 52.9044 122.311 52.5647 122.19 52.3532C122.068 52.1372 121.836 52.0292 121.494 52.0292C121.211 52.0292 120.905 52.1079 120.576 52.2654C120.252 52.4229 119.967 52.6367 119.719 52.9067V57.6249C119.544 57.6609 119.328 57.6789 119.071 57.6789C118.815 57.6789 118.596 57.6609 118.416 57.6249V50.9964L118.497 50.9154H118.99C119.251 50.9154 119.436 50.9897 119.544 51.1382C119.652 51.2822 119.71 51.4869 119.719 51.7524C120.012 51.4869 120.345 51.2709 120.718 51.1044C121.096 50.9334 121.488 50.8479 121.893 50.8479C122.316 50.8479 122.658 50.9469 122.919 51.1449C123.18 51.3384 123.371 51.6017 123.492 51.9347C123.614 52.2632 123.675 52.6322 123.675 53.0417V56.2344ZM128.985 50.9559C129.026 51.1269 129.046 51.2889 129.046 51.4419C129.046 51.6129 129.026 51.7749 128.985 51.9279L127.311 51.9077V56.0589C127.311 56.2344 127.352 56.3762 127.433 56.4842C127.514 56.5877 127.656 56.6394 127.858 56.6394H128.81C128.882 56.8329 128.918 57.0557 128.918 57.3077C128.918 57.3527 128.916 57.3999 128.911 57.4494C128.907 57.4989 128.9 57.5439 128.891 57.5844C128.67 57.6159 128.434 57.6407 128.182 57.6587C127.935 57.6767 127.678 57.6857 127.413 57.6857C126.972 57.6857 126.63 57.5754 126.387 57.3549C126.148 57.1299 126.029 56.7947 126.029 56.3492V51.9144L125.05 51.9279C125.014 51.7749 124.996 51.6129 124.996 51.4419C124.996 51.2889 125.014 51.1269 125.05 50.9559L126.029 50.9762V49.7409C126.029 49.4484 126.076 49.2347 126.171 49.0997C126.265 48.9647 126.452 48.8972 126.731 48.8972H127.224L127.311 48.9849V50.9829L128.985 50.9559ZM129.868 55.8159C129.868 55.3029 129.981 54.8844 130.206 54.5604C130.431 54.2319 130.737 53.9889 131.124 53.8314C131.511 53.6739 131.949 53.5952 132.44 53.5952C132.633 53.5952 132.847 53.6019 133.081 53.6154C133.32 53.6289 133.551 53.6514 133.776 53.6829V53.1294C133.776 52.6884 133.677 52.3734 133.479 52.1844C133.281 51.9909 133.005 51.8942 132.649 51.8942C132.303 51.8942 131.947 51.9459 131.583 52.0494C131.223 52.1529 130.865 52.2767 130.509 52.4207C130.401 52.3172 130.309 52.1732 130.233 51.9887C130.161 51.7997 130.122 51.6197 130.118 51.4487C130.487 51.2912 130.923 51.1494 131.427 51.0234C131.936 50.8929 132.422 50.8277 132.885 50.8277C133.556 50.8277 134.087 51.0144 134.478 51.3879C134.87 51.7569 135.066 52.3239 135.066 53.0889V55.8564C135.066 56.1174 135.088 56.3469 135.133 56.5449C135.183 56.7384 135.286 56.9072 135.444 57.0512C135.408 57.1682 135.34 57.2942 135.241 57.4292C135.147 57.5597 135.045 57.6587 134.937 57.7262C134.663 57.6632 134.442 57.5552 134.276 57.4022C134.114 57.2447 133.992 57.0624 133.911 56.8554C133.664 57.0939 133.367 57.3122 133.02 57.5102C132.678 57.7037 132.287 57.8004 131.846 57.8004C131.4 57.8004 131.031 57.7014 130.739 57.5034C130.446 57.3054 130.228 57.0557 130.084 56.7542C129.94 56.4482 129.868 56.1354 129.868 55.8159ZM131.171 55.7214C131.171 56.0094 131.252 56.2547 131.414 56.4572C131.576 56.6552 131.81 56.7542 132.116 56.7542C132.381 56.7542 132.663 56.6799 132.96 56.5314C133.257 56.3829 133.529 56.1647 133.776 55.8767V54.5807C133.574 54.5537 133.36 54.5357 133.135 54.5267C132.915 54.5177 132.705 54.5132 132.507 54.5132C132.089 54.5132 131.76 54.6212 131.522 54.8372C131.288 55.0487 131.171 55.3434 131.171 55.7214ZM139.472 56.6394C139.544 56.8329 139.58 57.0557 139.58 57.3077C139.58 57.3527 139.577 57.3999 139.573 57.4494C139.573 57.4989 139.566 57.5439 139.553 57.5844C139.404 57.6114 139.224 57.6339 139.013 57.6519C138.806 57.6744 138.614 57.6857 138.439 57.6857C137.579 57.6857 137.15 57.2402 137.15 56.3492V47.7834L137.237 47.6957H137.73C138.009 47.6957 138.196 47.7654 138.29 47.9049C138.385 48.0399 138.432 48.2514 138.432 48.5394V56.0522C138.432 56.4437 138.608 56.6394 138.959 56.6394H139.472ZM144.281 48.4044C144.375 48.3864 144.483 48.3729 144.605 48.3639C144.731 48.3549 144.843 48.3504 144.942 48.3504C145.055 48.3504 145.172 48.3549 145.293 48.3639C145.415 48.3729 145.527 48.3864 145.631 48.4044V57.6249C145.527 57.6429 145.415 57.6564 145.293 57.6654C145.172 57.6744 145.055 57.6789 144.942 57.6789C144.843 57.6789 144.731 57.6744 144.605 57.6654C144.483 57.6564 144.375 57.6429 144.281 57.6249V48.4044ZM151.659 53.3792C151.659 52.8887 151.591 52.5422 151.456 52.3397C151.321 52.1327 151.112 52.0292 150.829 52.0292C150.59 52.0292 150.331 52.1102 150.052 52.2722C149.773 52.4297 149.524 52.6389 149.303 52.8999V57.6249C149.128 57.6609 148.912 57.6789 148.655 57.6789C148.399 57.6789 148.18 57.6609 148 57.6249V51.0099L148.081 50.9154H148.574C148.835 50.9154 149.02 50.9897 149.128 51.1382C149.236 51.2867 149.294 51.4959 149.303 51.7659C149.573 51.4869 149.875 51.2642 150.208 51.0977C150.541 50.9312 150.88 50.8479 151.227 50.8479C151.609 50.8479 151.929 50.9402 152.185 51.1247C152.442 51.3047 152.633 51.5454 152.759 51.8469C153.074 51.5544 153.414 51.3159 153.778 51.1314C154.147 50.9424 154.525 50.8479 154.912 50.8479C155.502 50.8479 155.936 51.0527 156.215 51.4622C156.494 51.8717 156.634 52.3689 156.634 52.9539V56.2344C156.634 56.4639 156.647 56.6822 156.674 56.8892C156.706 57.0962 156.762 57.2784 156.843 57.4359C156.627 57.6204 156.352 57.7127 156.019 57.7127C155.767 57.7127 155.59 57.6429 155.486 57.5034C155.383 57.3639 155.331 57.1547 155.331 56.8757V53.3657C155.331 52.8752 155.261 52.5309 155.122 52.3329C154.987 52.1304 154.777 52.0292 154.494 52.0292C154.26 52.0292 154.003 52.1079 153.724 52.2654C153.45 52.4184 153.198 52.6299 152.968 52.8999C152.968 52.9134 152.968 52.9292 152.968 52.9472V57.6249C152.788 57.6609 152.572 57.6789 152.32 57.6789C152.059 57.6789 151.839 57.6609 151.659 57.6249V53.3792ZM159.238 50.9154C159.679 50.9154 159.935 51.1472 160.007 51.6107C160.232 51.3767 160.504 51.1832 160.824 51.0302C161.143 50.8727 161.494 50.7939 161.877 50.7939C162.385 50.7939 162.811 50.9402 163.153 51.2327C163.495 51.5207 163.751 51.9212 163.922 52.4342C164.098 52.9472 164.185 53.5412 164.185 54.2162C164.185 55.0262 164.057 55.6922 163.801 56.2142C163.549 56.7317 163.225 57.1164 162.829 57.3684C162.437 57.6159 162.032 57.7397 161.614 57.7397C161.317 57.7397 161.038 57.6969 160.777 57.6114C160.516 57.5214 160.266 57.4067 160.027 57.2672V59.6904C160.027 59.9784 159.978 60.1899 159.879 60.3249C159.784 60.4644 159.598 60.5342 159.319 60.5342H158.826L158.745 60.4464V50.9964L158.826 50.9154H159.238ZM161.58 51.8942C161.323 51.8942 161.053 51.9707 160.77 52.1237C160.486 52.2767 160.239 52.5084 160.027 52.8189V56.1534C160.239 56.2974 160.464 56.4212 160.702 56.5247C160.941 56.6282 161.186 56.6799 161.438 56.6799C161.825 56.6799 162.158 56.4819 162.437 56.0859C162.716 55.6854 162.856 55.0622 162.856 54.2162C162.856 53.3882 162.727 52.7942 162.471 52.4342C162.214 52.0742 161.917 51.8942 161.58 51.8942ZM165.411 55.8159C165.411 55.3029 165.524 54.8844 165.749 54.5604C165.974 54.2319 166.28 53.9889 166.667 53.8314C167.054 53.6739 167.492 53.5952 167.983 53.5952C168.176 53.5952 168.39 53.6019 168.624 53.6154C168.863 53.6289 169.094 53.6514 169.319 53.6829V53.1294C169.319 52.6884 169.22 52.3734 169.022 52.1844C168.824 51.9909 168.548 51.8942 168.192 51.8942C167.846 51.8942 167.49 51.9459 167.126 52.0494C166.766 52.1529 166.408 52.2767 166.052 52.4207C165.944 52.3172 165.852 52.1732 165.776 51.9887C165.704 51.7997 165.665 51.6197 165.661 51.4487C166.03 51.2912 166.466 51.1494 166.97 51.0234C167.479 50.8929 167.965 50.8277 168.428 50.8277C169.099 50.8277 169.63 51.0144 170.021 51.3879C170.413 51.7569 170.609 52.3239 170.609 53.0889V55.8564C170.609 56.1174 170.631 56.3469 170.676 56.5449C170.726 56.7384 170.829 56.9072 170.987 57.0512C170.951 57.1682 170.883 57.2942 170.784 57.4292C170.69 57.5597 170.588 57.6587 170.48 57.7262C170.206 57.6632 169.985 57.5552 169.819 57.4022C169.657 57.2447 169.535 57.0624 169.454 56.8554C169.207 57.0939 168.91 57.3122 168.563 57.5102C168.221 57.7037 167.83 57.8004 167.389 57.8004C166.943 57.8004 166.574 57.7014 166.282 57.5034C165.989 57.3054 165.771 57.0557 165.627 56.7542C165.483 56.4482 165.411 56.1354 165.411 55.8159ZM166.714 55.7214C166.714 56.0094 166.795 56.2547 166.957 56.4572C167.119 56.6552 167.353 56.7542 167.659 56.7542C167.924 56.7542 168.206 56.6799 168.503 56.5314C168.8 56.3829 169.072 56.1647 169.319 55.8767V54.5807C169.117 54.5537 168.903 54.5357 168.678 54.5267C168.458 54.5177 168.248 54.5132 168.05 54.5132C167.632 54.5132 167.303 54.6212 167.065 54.8372C166.831 55.0487 166.714 55.3434 166.714 55.7214ZM176.072 53.4939C176.085 53.2104 176.058 52.9404 175.991 52.6839C175.928 52.4229 175.804 52.2114 175.62 52.0494C175.435 51.8874 175.174 51.8064 174.837 51.8064C174.396 51.8064 174.049 52.0179 173.797 52.4409C173.545 52.8639 173.419 53.4962 173.419 54.3377C173.419 55.1612 173.556 55.7642 173.831 56.1467C174.11 56.5247 174.497 56.7137 174.992 56.7137C175.307 56.7137 175.602 56.6417 175.876 56.4977C176.155 56.3537 176.414 56.1939 176.652 56.0184C176.769 56.0904 176.884 56.2052 176.997 56.3627C177.109 56.5157 177.181 56.6642 177.213 56.8082C176.907 57.1052 176.547 57.3459 176.133 57.5304C175.723 57.7104 175.278 57.8004 174.796 57.8004C174.153 57.8004 173.628 57.6384 173.223 57.3144C172.823 56.9904 172.528 56.5674 172.339 56.0454C172.155 55.5189 172.062 54.9497 172.062 54.3377C172.062 53.5097 172.197 52.8347 172.467 52.3127C172.737 51.7907 173.086 51.4082 173.514 51.1652C173.946 50.9177 174.398 50.7939 174.87 50.7939C175.424 50.7939 175.878 50.9019 176.234 51.1179C176.589 51.3294 176.853 51.5904 177.024 51.9009C177.199 52.2114 177.287 52.5129 177.287 52.8054C177.287 53.0304 177.235 53.2104 177.132 53.3454C177.033 53.4804 176.862 53.5479 176.619 53.5479C176.439 53.5479 176.256 53.5299 176.072 53.4939ZM182.089 50.9559C182.129 51.1269 182.15 51.2889 182.15 51.4419C182.15 51.6129 182.129 51.7749 182.089 51.9279L180.415 51.9077V56.0589C180.415 56.2344 180.455 56.3762 180.536 56.4842C180.617 56.5877 180.759 56.6394 180.962 56.6394H181.913C181.985 56.8329 182.021 57.0557 182.021 57.3077C182.021 57.3527 182.019 57.3999 182.015 57.4494C182.01 57.4989 182.003 57.5439 181.994 57.5844C181.774 57.6159 181.538 57.6407 181.286 57.6587C181.038 57.6767 180.782 57.6857 180.516 57.6857C180.075 57.6857 179.733 57.5754 179.49 57.3549C179.252 57.1299 179.132 56.7947 179.132 56.3492V51.9144L178.154 51.9279C178.118 51.7749 178.1 51.6129 178.1 51.4419C178.1 51.2889 178.118 51.1269 178.154 50.9559L179.132 50.9762V49.7409C179.132 49.4484 179.18 49.2347 179.274 49.0997C179.369 48.9647 179.555 48.8972 179.834 48.8972H180.327L180.415 48.9849V50.9829L182.089 50.9559ZM188.581 55.3637C188.531 55.3637 188.412 55.3614 188.223 55.3569C188.034 55.3524 187.881 55.3502 187.764 55.3502L187.028 57.6384C186.943 57.6564 186.848 57.6699 186.745 57.6789C186.646 57.6879 186.545 57.6924 186.441 57.6924C186.203 57.6924 185.987 57.6609 185.793 57.5979L185.746 57.5372L188.804 48.4044C188.912 48.3864 189.04 48.3729 189.188 48.3639C189.341 48.3549 189.474 48.3504 189.587 48.3504C189.695 48.3504 189.825 48.3549 189.978 48.3639C190.131 48.3729 190.253 48.3887 190.343 48.4112L193.387 57.5439C193.288 57.6024 193.166 57.6452 193.022 57.6722C192.883 57.7037 192.741 57.7194 192.597 57.7194C192.381 57.7194 192.215 57.6722 192.098 57.5777C191.981 57.4787 191.879 57.2874 191.794 57.0039L191.261 55.3502C191.144 55.3502 190.986 55.3524 190.788 55.3569C190.595 55.3614 190.473 55.3637 190.424 55.3637H188.581ZM188.952 51.6309L188.115 54.2432C188.223 54.2432 188.356 54.2409 188.513 54.2364C188.671 54.2319 188.774 54.2297 188.824 54.2297H190.214C190.259 54.2297 190.356 54.2319 190.505 54.2364C190.658 54.2364 190.793 54.2387 190.91 54.2432L190.241 52.1574C190.115 51.7659 189.989 51.3542 189.863 50.9222C189.737 50.4902 189.627 50.1009 189.533 49.7544H189.465C189.398 50.0514 189.312 50.3822 189.209 50.7467C189.105 51.1067 189.02 51.4014 188.952 51.6309ZM195.255 50.9154C195.696 50.9154 195.953 51.1472 196.025 51.6107C196.25 51.3767 196.522 51.1832 196.842 51.0302C197.161 50.8727 197.512 50.7939 197.895 50.7939C198.403 50.7939 198.828 50.9402 199.17 51.2327C199.512 51.5207 199.769 51.9212 199.94 52.4342C200.115 52.9472 200.203 53.5412 200.203 54.2162C200.203 55.0262 200.075 55.6922 199.818 56.2142C199.566 56.7317 199.242 57.1164 198.846 57.3684C198.455 57.6159 198.05 57.7397 197.631 57.7397C197.334 57.7397 197.055 57.6969 196.794 57.6114C196.533 57.5214 196.284 57.4067 196.045 57.2672V59.6904C196.045 59.9784 195.996 60.1899 195.897 60.3249C195.802 60.4644 195.615 60.5342 195.336 60.5342H194.844L194.763 60.4464V50.9964L194.844 50.9154H195.255ZM197.598 51.8942C197.341 51.8942 197.071 51.9707 196.788 52.1237C196.504 52.2767 196.257 52.5084 196.045 52.8189V56.1534C196.257 56.2974 196.482 56.4212 196.72 56.5247C196.959 56.6282 197.204 56.6799 197.456 56.6799C197.843 56.6799 198.176 56.4819 198.455 56.0859C198.734 55.6854 198.873 55.0622 198.873 54.2162C198.873 53.3882 198.745 52.7942 198.489 52.4342C198.232 52.0742 197.935 51.8942 197.598 51.8942ZM202.401 50.9154C202.842 50.9154 203.098 51.1472 203.17 51.6107C203.395 51.3767 203.668 51.1832 203.987 51.0302C204.307 50.8727 204.658 50.7939 205.04 50.7939C205.549 50.7939 205.974 50.9402 206.316 51.2327C206.658 51.5207 206.914 51.9212 207.085 52.4342C207.261 52.9472 207.349 53.5412 207.349 54.2162C207.349 55.0262 207.22 55.6922 206.964 56.2142C206.712 56.7317 206.388 57.1164 205.992 57.3684C205.6 57.6159 205.195 57.7397 204.777 57.7397C204.48 57.7397 204.201 57.6969 203.94 57.6114C203.679 57.5214 203.429 57.4067 203.191 57.2672V59.6904C203.191 59.9784 203.141 60.1899 203.042 60.3249C202.948 60.4644 202.761 60.5342 202.482 60.5342H201.989L201.908 60.4464V50.9964L201.989 50.9154H202.401ZM204.743 51.8942C204.487 51.8942 204.217 51.9707 203.933 52.1237C203.65 52.2767 203.402 52.5084 203.191 52.8189V56.1534C203.402 56.2974 203.627 56.4212 203.866 56.5247C204.104 56.6282 204.349 56.6799 204.601 56.6799C204.988 56.6799 205.321 56.4819 205.6 56.0859C205.879 55.6854 206.019 55.0622 206.019 54.2162C206.019 53.3882 205.891 52.7942 205.634 52.4342C205.378 52.0742 205.081 51.8942 204.743 51.8942Z" fill="white"/>
<defs>
<filter id="filter0_d" x="44.7842" y="15.027" width="176.075" height="36.3375" filterUnits="userSpaceOnUse" color-interpolation-filters="sRGB">
<feFlood flood-opacity="0" result="BackgroundImageFix"/>
<feColorMatrix in="SourceAlpha" type="matrix" values="0 0 0 0 0 0 0 0 0 0 0 0 0 0 0 0 0 0 127 0"/>
<feOffset dy="4.5"/>
<feGaussianBlur stdDeviation="2.25"/>
<feColorMatrix type="matrix" values="0 0 0 0 0 0 0 0 0 0 0 0 0 0 0 0 0 0 0.25 0"/>
<feBlend mode="normal" in2="BackgroundImageFix" result="effect1_dropShadow"/>
<feBlend mode="normal" in="SourceGraphic" in2="effect1_dropShadow" result="shape"/>
</filter>
</defs>
</svg>
