<svg width="85" height="78" viewBox="0 0 85 78" fill="none" xmlns="http://www.w3.org/2000/svg">
<circle cx="43.7796" cy="36.844" r="36.844" fill="#FAFAFA"/>
<circle cx="36.844" cy="40.3118" r="36.744" stroke="#ABABAB" stroke-width="0.2"/>
<path d="M44.9275 64.4981C48.8832 64.4981 52.0899 61.2914 52.0899 57.3357C52.0899 53.3801 48.8832 50.1733 44.9275 50.1733C40.9719 50.1733 37.7651 53.3801 37.7651 57.3357C37.7651 61.2914 40.9719 64.4981 44.9275 64.4981Z" fill="#FFBABA"/>
<path d="M70.2794 71.5961C70.0632 71.7906 69.8359 71.9722 69.5985 72.1401C69.0351 72.5364 68.4263 72.8637 67.785 73.1151C65.1202 73.0509 61.2026 72.724 56.2575 72.5496C55.8886 72.4235 55.5114 72.287 55.1257 72.1401C54.6154 71.9457 54.0904 71.732 53.5507 71.499C51.3094 70.5305 49.0083 69.901 46.7289 69.5249C46.2391 69.4441 45.7506 69.3748 45.2633 69.3171C34.9705 68.0862 25.4787 71.7029 24.3794 72.1402H24.2734L24.9496 70.8306L36.4545 48.5474L39.145 55.4551L40.0037 57.6601L42.3702 54.4126L43.5922 52.7359L49.157 59.1158L50.7298 55.6423L61.6193 64.5289L62.2266 65.0243L62.8412 65.5261L63.037 65.6859L68.8587 70.4369L70.2794 71.5961Z" fill="#F2F2F2"/>
<path opacity="0.1" d="M35.4287 53.0353L36.54 50.5991L38.0786 54.1466L36.7537 51.5822L35.4287 53.0353Z" fill="black"/>
<path opacity="0.1" d="M46.7286 69.5247C46.2388 69.4439 45.7503 69.3747 45.2631 69.317L40.0034 57.6599L46.7286 69.5247Z" fill="black"/>
<path opacity="0.1" d="M42.3701 54.413L43.592 53.4629L49.1483 59.874L43.5065 54.4032L42.3701 54.413Z" fill="black"/>
<path opacity="0.1" d="M49.1567 59.1157L60.2609 69.7468L58.742 70.105L49.1567 59.1157Z" fill="black"/>
<path d="M78.7455 34.2471C77.9586 34.5376 76.5774 34.7752 74.9782 34.9671C70.63 35.4889 64.671 35.6741 64.671 35.6741C64.671 35.6741 34.0467 38.2143 11.0929 28.7674C11.0929 28.7674 7.75421 27.0167 10.8555 24.6615C11.332 24.309 11.8388 23.9996 12.37 23.7368C12.37 23.7368 12.3828 23.7237 12.4082 23.6995C12.7605 23.3737 13.1414 23.0801 13.5461 22.8224C14.735 22.0538 16.7431 21.1419 19.1867 21.5549L79.4696 31.3058C79.4696 31.3058 81.6717 33.1662 78.7455 34.2471Z" fill="#F2F2F2"/>
<path d="M66.7329 29.8283L79.3535 20.8738L84.9161 21.8358L79.4693 31.3057C79.4693 31.3057 66.8779 31.4058 66.7329 29.8283Z" fill="#F2F2F2"/>
<path d="M34.9595 24.3886L60.0979 17.3384L64.1503 18.185L52.7948 23.2933L49.2451 27.2638L34.9595 24.3886Z" fill="#F2F2F2"/>
<path d="M74.9782 34.967C70.63 35.4888 64.671 35.674 64.671 35.674C64.671 35.674 34.0467 38.2141 11.0929 28.7673C11.0929 28.7673 7.75421 27.0166 10.8555 24.6614L10.8661 24.7044C10.8661 24.7044 15.8186 28.0519 39.4831 30.8468L74.9782 34.967Z" fill="#F2F2F2"/>
<path d="M70.937 34.7735L82.1766 39.3622L84.9999 39.0487L78.2771 33.9965C78.2771 33.9965 70.1459 32.2624 70.937 34.7735Z" fill="#F2F2F2"/>
<path d="M14.9371 25.1946C14.4005 25.204 13.172 24.3042 12.4082 23.6994C12.7605 23.3736 13.1413 23.08 13.5461 22.8223C14.1617 23.2948 15.2577 24.06 15.8669 24.0327C16.7463 23.9933 15.7444 25.1807 14.9371 25.1946Z" fill="#F2F2F2"/>
<path d="M65.9965 50.6368L58.7807 51.014L38.4936 37.3337L34.7274 34.794L32.897 33.5598C36.3294 30.6587 50.3319 34.6587 50.3319 34.6587C50.6001 34.885 50.6852 35.2609 50.673 35.676C50.6499 36.454 50.2846 37.3696 50.1437 37.6955C50.1099 37.774 50.0891 37.8182 50.0891 37.8182L65.9965 50.6368Z" fill="#F2F2F2"/>
<path d="M78.7455 34.2471C77.9586 34.5376 76.5774 34.7752 74.9782 34.9671C70.63 35.4889 64.671 35.6741 64.671 35.6741C64.671 35.6741 34.0467 38.2143 11.0929 28.7674C11.0929 28.7674 7.75421 27.0167 10.8555 24.6615C11.332 24.309 11.8388 23.9996 12.37 23.7368C12.37 23.7368 12.3828 23.7237 12.4082 23.6995C12.7605 23.3737 13.1414 23.0801 13.5461 22.8224C14.735 22.0538 16.7431 21.1419 19.1867 21.5549L79.4696 31.3058C79.4696 31.3058 81.6717 33.1662 78.7455 34.2471Z" fill="#3F3D56"/>
<path d="M66.7329 29.8283L79.3535 20.8738L84.9161 21.8358L79.4693 31.3057C79.4693 31.3057 66.8779 31.4058 66.7329 29.8283Z" fill="#3F3D56"/>
<path d="M34.9595 24.3886L60.0979 17.3384L64.1503 18.185L52.7948 23.2933L49.2451 27.2638L34.9595 24.3886Z" fill="#3F3D56"/>
<path d="M74.9782 34.967C70.63 35.4888 64.671 35.674 64.671 35.674C64.671 35.674 34.0467 38.2141 11.0929 28.7673C11.0929 28.7673 7.75421 27.0166 10.8555 24.6614L10.8661 24.7044C10.8661 24.7044 15.8186 28.0519 39.4831 30.8468L74.9782 34.967Z" fill="#91A9C6"/>
<path d="M70.937 34.7735L82.1766 39.3622L84.9999 39.0487L78.2771 33.9965C78.2771 33.9965 70.1459 32.2624 70.937 34.7735Z" fill="#3F3D56"/>
<path d="M14.9371 25.1946C14.4005 25.204 13.172 24.3042 12.4082 23.6994C12.7605 23.3736 13.1413 23.08 13.5461 22.8223C14.1617 23.2948 15.2577 24.06 15.8669 24.0327C16.7463 23.9933 15.7444 25.1807 14.9371 25.1946Z" fill="#91A9C6"/>
<path d="M65.9965 50.6368L58.7807 51.014L38.4936 37.3337L34.7274 34.794L32.897 33.5598C36.3294 30.6587 50.3319 34.6587 50.3319 34.6587C50.6001 34.885 50.6852 35.2609 50.673 35.676C50.6499 36.454 50.2846 37.3696 50.1437 37.6955C50.1099 37.774 50.0891 37.8182 50.0891 37.8182L65.9965 50.6368Z" fill="#3F3D56"/>
</svg>
