<svg width="120" height="120" viewBox="0 0 120 120" fill="none" xmlns="http://www.w3.org/2000/svg">
<mask id="mask0" mask-type="alpha" maskUnits="userSpaceOnUse" x="7" y="7" width="105" height="105">
<path fill-rule="evenodd" clip-rule="evenodd" d="M89.4907 101.798C112.778 85.3071 118.288 53.0604 101.797 29.7731C85.3067 6.4852 53.0601 0.975284 29.7725 17.4663C6.48486 33.9568 0.974931 66.2035 17.4657 89.4911C33.9565 112.779 66.2031 118.289 89.4907 101.798Z" fill="#F0F0F0"/>
</mask>
<g mask="url(#mask0)">
<path fill-rule="evenodd" clip-rule="evenodd" d="M89.4907 101.798C112.778 85.3071 118.288 53.0604 101.797 29.7731C85.3067 6.4852 53.0601 0.975284 29.7725 17.4663C6.48486 33.9568 0.974931 66.2035 17.4657 89.4911C33.9565 112.779 66.2031 118.289 89.4907 101.798Z" fill="#F0F0F0"/>
<path fill-rule="evenodd" clip-rule="evenodd" d="M102.932 47.1079C120.35 34.7741 124.471 10.656 112.137 -6.76119C99.803 -24.1788 75.6849 -28.2998 58.2676 -15.9657C40.8502 -3.63208 36.7292 20.486 49.0631 37.9034C61.3969 55.3208 85.5149 59.4418 102.932 47.1079Z" fill="#FAFAFA"/>
</g>
<path d="M78.6704 83.48H78.484V63.0832C78.4841 63.0001 78.4656 62.918 78.4299 62.843C78.3943 62.7679 78.3422 62.7018 78.2777 62.6495L78.3955 62.5049C78.4815 62.5747 78.5508 62.6629 78.5984 62.7629C78.6459 62.863 78.6705 62.9724 78.6704 63.0832V83.48Z" fill="#594347"/>
<path d="M59.682 31.1365C59.7302 31.2466 59.7662 31.3616 59.7892 31.4795C59.737 31.2996 59.696 31.1775 59.682 31.1365Z" fill="#594347"/>
<path d="M61.3354 36.8348C61.3354 36.8348 61.3354 36.9635 61.1965 37.4277L61.3354 36.8348Z" fill="#594347"/>
<path d="M78.3529 56.2495C74.6873 58.1601 69.8922 59.8098 68.4559 60.2879C69.551 60.0027 72.7385 59.6187 77.6772 62.6999C83.8825 66.5706 90.5175 63.9898 90.5175 63.9898C90.5175 63.9898 89.0431 66.8166 85.9097 67.0002C82.7762 67.1848 74.6053 62.0242 71.841 63.4987C69.0757 64.9731 67.7858 63.1296 66.6795 66.8166C65.5742 70.5027 63.547 80.5777 65.8817 86.2304L68.2155 91.8821H61.5805H54.9455C54.9455 91.8821 59.7379 79.1033 57.0957 71.2399C55.6166 66.8362 53.5401 63.6469 52.7656 62.0261C52.3769 61.2143 52.3154 60.7968 52.8187 60.8173C53.1048 60.8294 53.5736 60.9832 54.2698 61.287C54.2698 61.287 51.0749 58.1536 50.031 58.1536C48.9863 58.1536 44.0709 57.6624 42.4743 56.0035C42.4743 56.0035 40.2012 54.406 36.146 58.3381C32.0908 62.2703 33.0741 62.2703 29.4495 61.9627C25.8818 61.6598 23.0867 59.9291 23 59.875C23.1035 59.917 27.2705 61.5825 29.8176 60.7343C32.3984 59.8741 34.61 56.6177 36.8832 55.5123C39.1564 54.406 40.5078 52.9316 43.5797 54.529L41.5554 49.7562L41.0008 48.4486L40.9999 48.4467C40.9999 48.4467 40.3232 39.4771 39.0333 38.8629C37.7434 38.2478 38.5422 36.6512 36.146 36.3437C36.146 36.3437 39.0949 35.9746 39.6475 38.0026C40.2012 40.0298 44.0103 50.966 44.0103 50.966C44.0103 50.966 46.344 55.6344 48.9248 54.529C51.5055 53.4227 47.9415 47.2183 47.9415 47.2183L43.5182 45.1903C43.5182 45.1903 46.8361 45.0673 48.8632 46.9723C50.8904 48.8764 51.0134 55.0202 51.0134 55.0202C51.0134 55.0202 56.1124 55.7574 57.3417 58.5227C57.3417 58.5227 58.1405 56.065 56.6045 54.5905C56.2205 54.2215 55.817 53.5802 55.4283 52.8262C53.9551 49.9323 53.4226 46.6504 53.9054 43.4391C54.1338 41.8677 54.2745 40.3308 54.0238 39.9683C53.4711 39.1695 51.1364 34.255 50.9519 32.9642C50.7683 31.6743 51.1364 28.9715 51.1364 28.9715C51.1364 28.9715 51.1979 32.2885 51.9351 33.3333C52.6724 34.3781 54.761 39.5386 54.761 39.5386C54.761 39.5386 54.761 46.0505 56.4815 49.2455C58.202 52.4404 61.519 56.0035 61.3354 58.3381V59.6896C61.3354 59.6896 65.0215 56.188 64.7754 55.0202C64.5294 53.8533 64.2227 51.088 61.8881 49.43C59.5534 47.771 58.0174 45.1288 59.6764 41.3197C60.6093 39.177 61.0176 38.0259 61.1965 37.4285L60.2291 41.5657C60.2291 41.5657 59.6149 45.8045 61.3354 47.2789C61.34 47.2827 61.3438 47.2864 61.3484 47.2901C63.0661 48.7664 65.3281 51.4571 65.3281 51.4571L65.3216 51.3388L64.8369 42.6105L64.9432 42.8435L65.7093 44.523L66.4344 46.1121C66.4344 46.1121 69.8744 41.6887 73.9296 40.2143C77.9838 38.7399 80.5031 33.5793 80.5031 33.5793L83.944 30.8756L81.1173 34.255C81.1173 34.255 80.257 38.2478 75.404 41.0745C70.5501 43.9004 67.4177 48.0777 67.2331 50.6584C67.0486 53.2391 66.8641 55.5123 66.8641 55.5123C66.8641 55.5123 75.9567 55.2047 77.9838 51.2111C80.0119 47.2183 81.6709 47.0338 81.6709 47.0338L80.5031 50.4739L79.2132 53.4227C79.2132 53.4227 84.4967 53.5458 87.2611 56.6792C90.0263 59.8126 96.9064 60.7343 96.9064 60.7343L93.0367 61.7782C93.0367 61.7782 89.3497 60.5498 85.8481 58.2766C82.3466 56.0035 82.7147 53.9763 78.3529 56.2495Z" fill="#594347"/>
<path opacity="0.1" d="M80.312 47.8669C79.9234 49.5874 79.4658 51.2492 78.8227 52.5158C76.7956 56.5095 67.7029 56.817 67.7029 56.817C67.7029 56.817 67.7458 56.2895 67.811 55.4572C70.1196 55.2671 76.4302 54.4553 78.0771 51.211C78.2281 50.9146 78.3679 50.5959 78.5002 50.2603L80.312 47.8669Z" fill="black"/>
<path opacity="0.1" d="M66.1669 52.7618C66.1669 52.7618 63.8937 50.0581 62.1742 48.5836C61.7967 48.2611 61.532 47.8045 61.3484 47.29C61.3335 47.249 61.3195 47.207 61.3055 47.1651C61.3456 47.2043 61.3857 47.2425 61.4286 47.2788C62.9338 48.5696 64.864 50.8027 65.3216 51.3386C65.3859 51.4151 65.4213 51.457 65.4213 51.457L64.9432 42.8434L65.7093 44.5229L66.1669 52.7618Z" fill="black"/>
<path opacity="0.1" d="M67.4828 45.0045C67.4694 46.5171 67.2731 47.4168 67.2731 47.4168C67.2731 47.4168 70.7121 42.9952 74.7658 41.5198C75.0054 41.3683 75.2484 41.219 75.4972 41.0742C80.3507 38.2481 81.2108 34.2547 81.2108 34.2547L84.0369 30.8757L80.5964 33.5789C80.5964 33.5789 78.0775 38.7396 74.0227 40.2141C71.2588 41.2191 68.7808 43.594 67.4828 45.0045Z" fill="black"/>
<path opacity="0.1" d="M62.1738 59.6426V60.9943C62.1738 60.9943 65.86 57.4924 65.6142 56.3251C65.4263 55.4324 65.2013 53.6058 64.0621 52.0537C64.5756 53.2266 64.7319 54.3707 64.8686 55.0203C65.0449 55.8573 63.1993 57.8948 62.1409 58.9806C62.178 59.1992 62.1891 59.4215 62.1738 59.6426Z" fill="black"/>
<path opacity="0.1" d="M57.2291 50.3672C57.2583 50.4294 57.2884 50.4907 57.3203 50.55C58.2624 52.2996 59.6828 54.1594 60.7455 55.8678C59.8866 54.176 58.3919 52.2414 57.2291 50.3672Z" fill="black"/>
<path opacity="0.1" d="M77.7703 62.6999C75.7493 61.4392 74.0219 60.759 72.6108 60.4143C71.1305 60.9714 69.9122 61.3869 69.2992 61.5908C70.3986 61.3063 73.5838 60.9282 78.5159 64.0047C82.3857 66.4185 86.4224 66.3233 88.913 65.9098C89.6018 65.3901 90.1791 64.7373 90.6106 63.99C90.6106 63.99 83.9754 66.5704 77.7703 62.6999Z" fill="black"/>
<path opacity="0.1" d="M60.2243 47.7518C59.7289 46.5379 59.6473 45.0935 60.2164 43.4009C60.2093 42.7874 60.2447 42.1743 60.3224 41.5658L61.2897 37.4275C61.1114 38.0243 60.7033 39.1756 59.7694 41.32C58.5872 44.0348 59.0284 46.1562 60.2243 47.7518Z" fill="black"/>
<path opacity="0.1" d="M87.3545 56.679C85.4372 54.5061 82.3089 53.7812 80.5711 53.5408L80.0519 54.7277C80.0519 54.7277 85.3354 54.8506 88.1001 57.9838C89.6332 59.7214 92.4318 60.7785 94.6212 61.3757L97 60.7338C97 60.7338 90.1191 59.8123 87.3545 56.679Z" fill="black"/>
<path opacity="0.1" d="M49.7636 55.8335C52.3439 54.7277 48.7806 48.5226 48.7806 48.5226L48.6831 48.4779C49.5715 50.3522 50.8599 53.7394 49.018 54.5287C47.2945 55.2674 45.6808 53.4297 44.7991 52.1277C44.8311 52.2198 44.8487 52.2702 44.8487 52.2702C44.8487 52.2702 47.1832 56.9394 49.7636 55.8335Z" fill="black"/>
<path opacity="0.1" d="M58.1804 59.8269C58.1804 59.8269 58.958 57.4303 57.4973 55.9506C57.8555 57.2253 57.4348 58.5221 57.4348 58.5221C56.4843 56.3835 53.2182 55.4582 51.7876 55.1488C51.8431 55.8608 51.8525 56.3251 51.8525 56.3251C51.8525 56.3251 56.9517 57.0623 58.1804 59.8269Z" fill="black"/>
<path opacity="0.1" d="M61.2897 37.4276C61.4282 36.9642 61.4282 36.835 61.4282 36.835L61.2897 37.4276Z" fill="black"/>
<path opacity="0.1" d="M30.6195 62.0504C30.6319 62.0464 30.6444 62.0428 30.6567 62.0387C33.2371 61.1786 35.4488 57.9224 37.722 56.8166C39.9951 55.7107 41.3467 54.2362 44.4186 55.8336C44.4186 55.8336 43.8811 53.6338 42.8397 52.1886C43.1847 52.9431 43.4635 53.7261 43.6729 54.5288C40.6011 52.9314 39.2495 54.4059 36.9764 55.5118C34.7032 56.6176 32.4915 59.8738 29.9111 60.7339C27.3308 61.594 23.0917 59.8738 23.0917 59.8738C23.0917 59.8738 25.9178 61.6554 29.5425 61.9626C29.9572 61.9977 30.311 62.0287 30.6195 62.0504Z" fill="black"/>
<path opacity="0.1" d="M41.8387 49.7514C41.8387 49.7514 41.7381 49.7532 41.5554 49.756L41.0009 48.4484C41.0614 48.4475 41.0931 48.4466 41.0931 48.4466C41.0931 48.4466 40.6663 42.7893 39.8442 40.1526C39.8545 40.1573 39.8629 40.1629 39.8722 40.1675C41.1621 40.7817 41.8387 49.7514 41.8387 49.7514Z" fill="black"/>
<path opacity="0.1" d="M56.2331 91.8822C57.3588 88.4314 60.066 78.889 57.9346 72.5443C57.0141 69.8043 56.161 68.0571 55.4397 66.9424C55.9791 67.9976 56.5688 69.3933 57.189 71.2395C59.8308 79.1034 55.0387 91.8822 55.0387 91.8822H56.2331Z" fill="black"/>
<path opacity="0.1" d="M55.1092 62.5921C54.3677 62.2661 53.5742 62.0745 52.7656 62.0262C52.3769 61.2143 52.3154 60.7966 52.8188 60.8172C52.9586 60.8423 53.0994 60.8722 53.2392 60.9066C54.2273 61.727 55.1092 62.5921 55.1092 62.5921Z" fill="black"/>
<path opacity="0.1" d="M38.4764 38.266C38.5465 38.384 38.6315 38.4926 38.7291 38.589C38.6574 38.4721 38.5726 38.3637 38.4764 38.266Z" fill="black"/>
<path opacity="0.1" d="M49.7022 48.2769C49.7971 48.3667 49.8861 48.4626 49.9685 48.5641C49.6994 47.9171 49.367 47.3577 48.9566 46.9721C46.9292 45.0676 43.6116 45.1904 43.6116 45.1904L47.7722 47.0974C48.4851 47.3633 49.1403 47.7638 49.7022 48.2769Z" fill="black"/>
<path opacity="0.1" d="M54.1172 39.9683C54.3679 40.3305 54.2271 41.8674 53.9982 43.4392C53.5156 46.6504 54.0482 49.9321 55.5216 52.8258C55.7173 53.2131 55.9359 53.5883 56.1762 53.9496C54.7721 51.0986 54.2724 47.8868 54.7438 44.744C54.9727 43.1722 55.1135 41.6353 54.8628 41.2731C54.3099 40.4744 51.9753 35.5595 51.791 34.2693C51.7357 33.7688 51.7229 33.2645 51.7525 32.7618C51.2753 31.4078 51.2297 28.9711 51.2297 28.9711C51.2297 28.9711 50.8611 31.6744 51.0454 32.9645C51.2297 34.2547 53.5643 39.1696 54.1172 39.9683Z" fill="black"/>
<path opacity="0.1" d="M59.881 31.475C59.8563 31.3535 59.8189 31.235 59.7694 31.1214C59.7694 31.1214 59.8166 31.2541 59.881 31.475Z" fill="black"/>
<path opacity="0.1" d="M38.1816 37.6626C38.7232 37.7289 39.3462 37.8951 39.8214 38.2804C39.7904 38.1756 39.7633 38.0816 39.7418 38.0026C39.1887 35.9748 36.2391 36.3435 36.2391 36.3435C37.5721 36.5144 37.9164 37.0845 38.1816 37.6626Z" fill="black"/>
<path d="M80.6676 78.3688C80.6676 78.3688 81.7221 77.2626 82.1537 77.4851C82.5853 77.7077 80.9128 78.6969 80.9128 78.6969L80.6676 78.3688Z" fill="#FFB9B9"/>
<path opacity="0.1" d="M80.6676 78.3688C80.6676 78.3688 81.7221 77.2626 82.1537 77.4851C82.5853 77.7077 80.9128 78.6969 80.9128 78.6969L80.6676 78.3688Z" fill="black"/>
<path d="M77.4509 75.9545C77.4509 75.9545 77.0633 76.6492 77.1647 77.398C77.2662 78.1469 78.1936 80.5498 78.5089 80.5071C78.8242 80.4644 81.1599 78.7434 81.1599 78.7434L80.7144 78.1214L79.0082 79.1552C79.0082 79.1552 78.7482 75.4577 77.4509 75.9545Z" fill="#D0CDE1"/>
<path d="M83.7784 77.6459L81.1179 79.1072C81.1025 79.1175 81.085 79.1242 81.0667 79.127C81.0484 79.1298 81.0297 79.1285 81.0119 79.1232C80.9942 79.118 80.9778 79.1089 80.9639 79.0967C80.95 79.0844 80.939 79.0693 80.9316 79.0523L80.2798 77.69C80.2675 77.6512 80.2695 77.6092 80.2855 77.5717C80.3015 77.5342 80.3304 77.5037 80.367 77.4858L82.5759 76.3472C82.6031 76.3309 82.6354 76.3251 82.6666 76.3311C82.6977 76.3371 82.7256 76.3543 82.7449 76.3796L83.8482 77.419C83.8591 77.4384 83.8659 77.4597 83.8683 77.4818C83.8706 77.5039 83.8685 77.5262 83.8619 77.5474C83.8554 77.5686 83.8446 77.5883 83.8303 77.6052C83.8159 77.6222 83.7982 77.636 83.7784 77.6459Z" fill="#2F2E41"/>
<path d="M83.6007 77.4445L81.1066 78.8701L80.4429 77.6739L82.5825 76.5103L83.6007 77.4445Z" fill="#5DB075"/>
<path d="M81.5079 77.0324C81.5209 77.0168 81.5206 76.9952 81.5074 76.9841C81.4941 76.9731 81.4728 76.9767 81.4598 76.9923C81.4468 77.0078 81.447 77.0294 81.4603 77.0405C81.4736 77.0516 81.4949 77.048 81.5079 77.0324Z" fill="#F2F2F2"/>
<path d="M82.4257 78.2493C82.4343 78.2389 82.4342 78.2245 82.4253 78.2171C82.4165 78.2098 82.4023 78.2122 82.3936 78.2226C82.385 78.2329 82.3851 78.2473 82.394 78.2547C82.4028 78.2621 82.417 78.2597 82.4257 78.2493Z" fill="#F2F2F2"/>
<path opacity="0.1" d="M77.4509 75.9545C77.4509 75.9545 77.0633 76.6492 77.1647 77.398C77.2662 78.1469 78.1936 80.5498 78.5089 80.5071C78.8242 80.4644 81.1599 78.7434 81.1599 78.7434L80.7144 78.1214L79.0082 79.1552C79.0082 79.1552 78.7482 75.4577 77.4509 75.9545Z" fill="black"/>
<path d="M79.9548 78.5801C79.9548 78.5801 81.1483 77.6253 81.5461 77.9038C81.9439 78.1823 80.1537 78.9381 80.1537 78.9381L79.9548 78.5801Z" fill="#FFB9B9"/>
<path d="M78.3641 74.7622C79.0013 74.7622 79.5178 74.2457 79.5178 73.6085C79.5178 72.9714 79.0013 72.4549 78.3641 72.4549C77.727 72.4549 77.2104 72.9714 77.2104 73.6085C77.2104 74.2457 77.727 74.7622 78.3641 74.7622Z" fill="#FFB9B9"/>
<path d="M82.3412 81.6425C82.3412 81.6425 83.5742 81.8016 83.5344 82.5572C83.4946 83.3129 82.5799 86.455 82.5799 86.455L82.5003 87.688C82.5003 87.688 82.5799 89.7561 82.3412 89.7164C82.1026 89.6766 81.5458 88.2448 81.5458 88.2448C81.5458 88.2448 80.8696 87.8073 81.1878 87.4095C81.506 87.0118 81.7446 87.0516 81.6651 86.6141C81.5855 86.1766 81.6253 84.347 81.8639 83.7902C82.1026 83.2334 82.2416 82.9263 82.2416 82.9263L81.4662 82.8754L82.3412 81.6425Z" fill="#FFB9B9"/>
<path opacity="0.1" d="M82.3412 81.6425C82.3412 81.6425 83.5742 81.8016 83.5344 82.5572C83.4946 83.3129 82.5799 86.455 82.5799 86.455L82.5003 87.688C82.5003 87.688 82.5799 89.7561 82.3412 89.7164C82.1026 89.6766 81.5458 88.2448 81.5458 88.2448C81.5458 88.2448 80.8696 87.8073 81.1878 87.4095C81.506 87.0118 81.7446 87.0516 81.6651 86.6141C81.5855 86.1766 81.6253 84.347 81.8639 83.7902C82.1026 83.2334 82.2416 82.9263 82.2416 82.9263L81.4662 82.8754L82.3412 81.6425Z" fill="black"/>
<path d="M82.4208 81.8412C82.4208 81.8412 83.614 82.1197 83.7333 82.9151C83.8526 83.7106 84.4492 86.0572 84.4492 86.0572L85.0856 87.5288C85.0856 87.5288 86.0799 89.3186 85.6424 89.2788C85.2049 89.239 84.6083 88.364 84.4094 88.364C84.2106 88.364 83.614 88.1254 83.6538 87.9663C83.6935 87.8072 83.9719 87.3299 83.9719 87.3299L83.0097 85.6537C82.8239 85.3302 82.6835 84.9826 82.5923 84.6208C82.4935 84.2282 82.381 83.7473 82.381 83.5913C82.381 83.3128 81.5856 83.1935 81.5856 83.1935L82.4208 81.8412Z" fill="#FFB9B9"/>
<path d="M78.5231 79.2958L79.0799 80.8868C79.0799 80.8868 79.9549 81.1254 80.5913 81.3243C81.2276 81.5231 82.4208 81.2447 82.5401 81.722C82.6594 82.1993 82.3015 83.0345 81.9435 83.2334C81.5856 83.4322 81.3867 83.6311 80.2333 83.3129C79.0799 82.9947 76.3356 82.9152 76.3356 82.9152C76.0695 83.0748 75.7699 83.1701 75.4605 83.1936C74.9435 83.2334 74.8242 83.2731 74.6651 83.1538C74.506 83.0345 74.7446 83.0345 74.8242 82.7163C74.9037 82.3981 74.9435 82.5174 75.3015 82.1595C75.6594 81.8015 75.9378 80.7277 76.1367 80.3697C76.3356 80.0118 76.4549 79.2958 76.4549 79.2958H78.5231Z" fill="#2F2E41"/>
<path d="M78.4439 74.563C78.2994 74.6686 78.1811 74.806 78.0983 74.9647C78.0156 75.1234 77.9704 75.299 77.9665 75.478C77.9665 76.0747 76.7731 74.8415 76.7731 74.8415C76.7731 74.8415 77.4096 74.0458 77.4096 73.8071C77.4096 73.5684 78.4439 74.563 78.4439 74.563Z" fill="#FFB9B9"/>
<path d="M76.9321 74.3243C76.9321 74.3243 77.6481 74.6027 77.8072 75.0004C77.9662 75.3981 78.5628 76.2334 78.5628 76.2334C78.5628 76.2334 79.3981 77.1084 79.1197 78.0629C78.8412 79.0175 78.6026 79.2561 78.6026 79.4152C78.6026 79.5743 78.2049 79.8527 77.8867 79.8129C77.5685 79.7732 76.3753 79.6141 76.2958 79.455C76.2162 79.2959 75.739 77.0288 76.0571 76.1936C76.3153 75.5553 76.6073 74.9313 76.9321 74.3243Z" fill="#D0CDE1"/>
<path d="M78.6992 73.6612C78.9574 73.7224 79.2107 73.558 79.4223 73.3949C79.5424 73.3023 79.6746 73.1702 79.6378 73.0212C79.6051 72.8889 79.4494 72.814 79.4267 72.6796C79.4109 72.5862 79.4655 72.4954 79.4699 72.4007C79.466 72.3286 79.4423 72.2589 79.4015 72.1994C79.3607 72.1398 79.3042 72.0926 79.2383 72.0629C79.1126 71.9952 78.9699 71.9669 78.8407 71.9063C78.6434 71.8138 78.4794 71.6469 78.2686 71.5935C77.9807 71.5204 77.6876 71.6759 77.3916 71.696C77.2124 71.7082 77.031 71.6704 76.8538 71.6998C76.6848 71.734 76.5323 71.8241 76.4207 71.9555C76.3091 72.087 76.2451 72.2522 76.2388 72.4245C76.2366 72.5511 76.2619 72.6923 76.1863 72.7928C76.1565 72.8273 76.1225 72.8581 76.0851 72.8844C75.8218 73.0973 75.7023 73.4529 75.6888 73.7955C75.6821 73.9642 75.7174 74.1645 75.867 74.2362C75.9471 74.2636 76.0318 74.2754 76.1164 74.2708C76.1589 74.269 76.2012 74.2777 76.2396 74.296C76.2779 74.3143 76.3112 74.3418 76.3366 74.3759C76.4047 74.4962 76.3026 74.6737 76.3918 74.7786C76.4587 74.8574 76.5893 74.8313 76.6675 74.7641C76.7457 74.697 76.7945 74.6004 76.8686 74.5286C77.0128 74.3889 77.2267 74.3636 77.4244 74.3424C77.4829 74.3419 77.5399 74.3233 77.5874 74.2889C77.6233 74.2512 77.6467 74.2034 77.6542 74.1519C77.6803 74.0333 77.6806 73.9106 77.6552 73.7919C77.6427 73.7552 77.6411 73.7156 77.6507 73.678C77.6637 73.6513 77.6839 73.6286 77.709 73.6126C77.8315 73.5206 78.0461 73.3866 78.2053 73.412C78.382 73.4401 78.521 73.6189 78.6992 73.6612Z" fill="#2F2E41"/>
<path d="M77.0913 75.7559C77.0913 75.7559 76.614 76.3923 76.614 77.148C76.614 77.9036 77.2106 80.4093 77.5288 80.4093C77.847 80.4093 80.3924 79.0173 80.3924 79.0173L80.0345 78.3412L78.2049 79.1366C78.2049 79.1366 78.4436 75.4377 77.0913 75.7559Z" fill="#D0CDE1"/>
<path d="M82.4916 82.9351H73.3579V84.7059H82.4916V82.9351Z" fill="#5DB075"/>
<path d="M77.9247 84.7989C77.727 84.7987 77.5375 84.7201 77.3977 84.5803C77.2579 84.4405 77.1793 84.251 77.1791 84.0533V63.0831C77.1791 62.9421 77.2191 62.804 77.2944 62.6848C77.3697 62.5656 77.4772 62.4702 77.6046 62.4097C77.7319 62.3492 77.8738 62.326 78.0138 62.3428C78.1537 62.3597 78.2861 62.4159 78.3954 62.5049L78.2776 62.6494C78.1956 62.5827 78.0964 62.5405 77.9914 62.5279C77.8864 62.5153 77.78 62.5327 77.6845 62.5781C77.5891 62.6235 77.5084 62.695 77.4519 62.7844C77.3954 62.8738 77.3655 62.9774 77.3655 63.0831V84.0533C77.3656 84.2016 77.4246 84.3437 77.5294 84.4485C77.6343 84.5534 77.7764 84.6123 77.9247 84.6125V84.7989Z" fill="#594347"/>
<path d="M76.5156 73.0874C76.5557 73.0551 76.5098 72.9314 76.4131 72.811C76.3164 72.6905 76.2055 72.619 76.1653 72.6513C76.1252 72.6835 76.1711 72.8073 76.2678 72.9277C76.3645 73.0481 76.4754 73.1196 76.5156 73.0874Z" fill="#5DB075"/>
<path d="M68.53 88.7258C67.6138 90.1309 67.8648 91.918 67.8648 91.918C67.8648 91.918 69.6014 91.427 70.5177 90.0219C71.4339 88.6168 71.1829 86.8297 71.1829 86.8297C71.1829 86.8297 69.4463 87.3207 68.53 88.7258Z" fill="#594347"/>
<path d="M69.2182 88.9741C69.1457 90.65 67.9017 91.9574 67.9017 91.9574C67.9017 91.9574 66.775 90.5476 66.8475 88.8717C66.9199 87.1958 68.1639 85.8884 68.1639 85.8884C68.1639 85.8884 69.2906 87.2982 69.2182 88.9741Z" fill="#5DB075"/>
<path d="M53.4511 89.2573C53.8892 90.8765 55.3896 91.8794 55.3896 91.8794C55.3896 91.8794 56.1797 90.2569 55.7417 88.6376C55.3037 87.0184 53.8033 86.0155 53.8033 86.0155C53.8033 86.0155 53.0131 87.638 53.4511 89.2573Z" fill="#594347"/>
<path d="M54.0955 88.9095C55.2977 90.0799 55.4446 91.879 55.4446 91.879C55.4446 91.879 53.6422 91.7806 52.4399 90.6102C51.2377 89.4399 51.0908 87.6408 51.0908 87.6408C51.0908 87.6408 52.8932 87.7392 54.0955 88.9095Z" fill="#5DB075"/>
<path d="M50.1109 45.0061C50.0064 46.6803 48.7375 47.9636 48.7375 47.9636C48.7375 47.9636 47.6381 46.5325 47.7426 44.8583C47.8471 43.1841 49.116 41.9008 49.116 41.9008C49.116 41.9008 50.2154 43.3319 50.1109 45.0061Z" fill="#5DB075"/>
<path d="M36.8841 34.422C38.3031 35.3166 38.8206 37.0455 38.8206 37.0455C38.8206 37.0455 37.0376 37.3239 35.6186 36.4293C34.1996 35.5347 33.682 33.8058 33.682 33.8058C33.682 33.8058 35.4651 33.5274 36.8841 34.422Z" fill="#5DB075"/>
<path d="M33.7154 54.833C35.1344 55.7277 35.6519 57.4565 35.6519 57.4565C35.6519 57.4565 33.8689 57.7349 32.4499 56.8403C31.0309 55.9457 30.5133 54.2168 30.5133 54.2168C30.5133 54.2168 32.2964 53.9384 33.7154 54.833Z" fill="#5DB075"/>
<path d="M62.5629 37.4059C62.1349 39.0278 60.6408 40.04 60.6408 40.04C60.6408 40.04 59.8405 38.4225 60.2685 36.8005C60.6964 35.1786 62.1905 34.1664 62.1905 34.1664C62.1905 34.1664 62.9908 35.7839 62.5629 37.4059Z" fill="#5DB075"/>
<path d="M76.0616 38.6707C75.5586 40.271 74.019 41.2125 74.019 41.2125C74.019 41.2125 73.2949 39.5595 73.7979 37.9592C74.3008 36.3589 75.8404 35.4174 75.8404 35.4174C75.8404 35.4174 76.5646 37.0704 76.0616 38.6707Z" fill="#5DB075"/>
<path d="M90.6517 56.4811C89.7406 57.8896 88.0058 58.387 88.0058 58.387C88.0058 58.387 87.7482 56.6008 88.6592 55.1923C89.5703 53.7838 91.3051 53.2864 91.3051 53.2864C91.3051 53.2864 91.5627 55.0726 90.6517 56.4811Z" fill="#5DB075"/>
</svg>
