<svg width="47" height="47" viewBox="0 0 47 47" fill="none" xmlns="http://www.w3.org/2000/svg">
<circle cx="23.3287" cy="23.3282" r="23.3282" fill="#F0F0F0"/>
<path fill-rule="evenodd" clip-rule="evenodd" d="M27.0005 15.7502C27.5972 15.7502 28.1695 15.5132 28.5915 15.0912C29.0134 14.6692 29.2505 14.0969 29.2505 13.5001C29.2505 12.9033 29.0134 12.331 28.5915 11.909C28.1695 11.4871 27.5972 11.25 27.0005 11.25C26.4038 11.25 25.8315 11.4871 25.4095 11.909C24.9875 12.331 24.7505 12.9033 24.7505 13.5001C24.7505 14.0969 24.9875 14.6692 25.4095 15.0912C25.8315 15.5132 26.4038 15.7502 27.0005 15.7502ZM23.8989 15.2214C24.082 15.2673 24.2506 15.3586 24.3892 15.4868C24.5278 15.615 24.632 15.776 24.692 15.955C24.8967 16.5659 25.1825 17.1003 25.5346 17.5503C26.5044 18.7879 28.0692 19.4944 30.191 19.1411C30.3387 19.112 30.4908 19.1127 30.6382 19.1434C30.7857 19.1741 30.9254 19.2341 31.0493 19.3198C31.1731 19.4056 31.2784 19.5153 31.3591 19.6425C31.4397 19.7696 31.494 19.9117 31.5187 20.0603C31.5434 20.2088 31.538 20.3608 31.5029 20.5073C31.4678 20.6537 31.4036 20.7916 31.3142 20.9128C31.2248 21.034 31.112 21.136 30.9824 21.2128C30.8529 21.2895 30.7092 21.3395 30.56 21.3597C28.157 21.7603 26.0769 21.1494 24.575 19.806L21.5206 22.4859L23.3465 24.5718C23.5263 24.7769 23.6254 25.0404 23.6255 25.3132V30.3759C23.6255 30.6743 23.507 30.9605 23.296 31.1715C23.085 31.3825 22.7989 31.501 22.5005 31.501C22.2021 31.501 21.916 31.3825 21.705 31.1715C21.494 30.9605 21.3755 30.6743 21.3755 30.3759V25.7362L19.0906 23.1261L19.0411 23.0698C18.7711 22.7694 18.3211 22.2654 18.1254 21.6714C18.0061 21.3057 17.9679 20.8838 18.0972 20.4383C18.221 20.0063 18.4775 19.6395 18.7947 19.3279L18.8105 19.3133L22.8526 15.4948C22.99 15.365 23.1579 15.272 23.3407 15.2242C23.5236 15.1764 23.7155 15.1755 23.8989 15.2214ZM11.2505 28.1258C11.2505 27.2307 11.6061 26.3722 12.239 25.7392C12.8719 25.1063 13.7304 24.7507 14.6255 24.7507C15.5206 24.7507 16.379 25.1063 17.012 25.7392C17.6449 26.3722 18.0005 27.2307 18.0005 28.1258C18.0005 29.021 17.6449 29.8795 17.012 30.5124C16.379 31.1454 15.5206 31.501 14.6255 31.501C13.7304 31.501 12.8719 31.1454 12.239 30.5124C11.6061 29.8795 11.2505 29.021 11.2505 28.1258ZM14.6255 22.5006C13.1336 22.5006 11.7029 23.0932 10.648 24.1482C9.59312 25.2031 9.00049 26.6339 9.00049 28.1258C9.00049 29.6177 9.59312 31.0486 10.648 32.1035C11.7029 33.1584 13.1336 33.7511 14.6255 33.7511C16.1173 33.7511 17.5481 33.1584 18.603 32.1035C19.6579 31.0486 20.2505 29.6177 20.2505 28.1258C20.2505 26.6339 19.6579 25.2031 18.603 24.1482C17.5481 23.0932 16.1173 22.5006 14.6255 22.5006ZM27.0005 28.1258C27.0005 27.2307 27.3561 26.3722 27.989 25.7392C28.6219 25.1063 29.4804 24.7507 30.3755 24.7507C31.2706 24.7507 32.129 25.1063 32.762 25.7392C33.3949 26.3722 33.7505 27.2307 33.7505 28.1258C33.7505 29.021 33.3949 29.8795 32.762 30.5124C32.129 31.1454 31.2706 31.501 30.3755 31.501C29.4804 31.501 28.6219 31.1454 27.989 30.5124C27.3561 29.8795 27.0005 29.021 27.0005 28.1258ZM30.3755 22.5006C28.8836 22.5006 27.4529 23.0932 26.398 24.1482C25.3431 25.2031 24.7505 26.6339 24.7505 28.1258C24.7505 29.6177 25.3431 31.0486 26.398 32.1035C27.4529 33.1584 28.8836 33.7511 30.3755 33.7511C31.8673 33.7511 33.2981 33.1584 34.353 32.1035C35.4079 31.0486 36.0005 29.6177 36.0005 28.1258C36.0005 26.6339 35.4079 25.2031 34.353 24.1482C33.2981 23.0932 31.8673 22.5006 30.3755 22.5006Z" fill="black"/>
</svg>
