<svg width="29" height="28" viewBox="0 0 29 28" fill="none" xmlns="http://www.w3.org/2000/svg">
<path fill-rule="evenodd" clip-rule="evenodd" d="M10.1419 2.99298C9.81994 3.55985 9.52834 4.26203 9.25074 5.09252C7.10687 10.8977 3.79077 19.3904 2.18928 23.4682C1.46261 25.3193 3.23322 27.1727 5.11698 26.5323C9.21808 25.1338 17.7025 22.2633 23.5031 20.4343L23.5206 20.4297C24.3534 20.152 25.0556 19.8674 25.6201 19.5548C26.1765 19.2434 26.6757 18.8608 27.0117 18.3534C27.7768 17.194 27.3523 15.9798 26.846 15.0408C23.6617 9.13879 19.6808 4.98987 14.7107 1.83123C14.236 1.5303 13.7041 1.27369 13.1302 1.1932C12.5135 1.10064 11.8844 1.2421 11.3666 1.58978C10.8569 1.92688 10.465 2.42727 10.1419 2.99298ZM18.2029 10.605C16.36 8.63724 14.3515 6.97394 11.7457 5.05286C11.8938 4.6831 12.035 4.3845 12.1703 4.14656C12.3942 3.75231 12.5645 3.59368 12.6532 3.53536C12.7068 3.50036 12.7348 3.49337 12.8048 3.5027C12.9156 3.51903 13.1232 3.58668 13.4591 3.80013C18.0898 6.74182 21.7955 10.5921 24.7932 16.1489C25.2107 16.9223 25.0754 17.0564 25.0649 17.0669V17.0681C25.0159 17.1415 24.8725 17.299 24.4841 17.516C24.2624 17.6396 23.986 17.7679 23.6442 17.9044C21.7092 14.8285 20.0529 12.5785 18.2029 10.605ZM16.5 12.1995C18.1213 13.9281 19.6108 15.9156 21.3651 18.666C15.6485 20.4961 8.13798 23.0377 4.36347 24.3231H4.36114V24.3208C5.83432 20.5696 8.76901 13.0556 10.9059 7.33552C13.1839 9.03965 14.9172 10.5093 16.5011 12.1995H16.5ZM12.2647 15.1633C12.8834 15.1633 13.4768 14.9175 13.9143 14.48C14.3518 14.0426 14.5976 13.4492 14.5976 12.8305C14.5976 12.2118 14.3518 11.6184 13.9143 11.1809C13.4768 10.7434 12.8834 10.4977 12.2647 10.4977C11.646 10.4977 11.0527 10.7434 10.6152 11.1809C10.1777 11.6184 9.93192 12.2118 9.93192 12.8305C9.93192 13.4492 10.1777 14.0426 10.6152 14.48C11.0527 14.9175 11.646 15.1633 12.2647 15.1633ZM12.2647 18.6625C12.2647 19.2812 12.019 19.8746 11.5815 20.3121C11.144 20.7496 10.5506 20.9954 9.93192 20.9954C9.31322 20.9954 8.71985 20.7496 8.28237 20.3121C7.84488 19.8746 7.5991 19.2812 7.5991 18.6625C7.5991 18.0438 7.84488 17.4505 8.28237 17.013C8.71985 16.5755 9.31322 16.3297 9.93192 16.3297C10.5506 16.3297 11.144 16.5755 11.5815 17.013C12.019 17.4505 12.2647 18.0438 12.2647 18.6625ZM15.764 19.829C16.3827 19.829 16.976 19.5832 17.4135 19.1457C17.851 18.7082 18.0968 18.1148 18.0968 17.4961C18.0968 16.8774 17.851 16.2841 17.4135 15.8466C16.976 15.4091 16.3827 15.1633 15.764 15.1633C15.1453 15.1633 14.5519 15.4091 14.1144 15.8466C13.6769 16.2841 13.4312 16.8774 13.4312 17.4961C13.4312 18.1148 13.6769 18.7082 14.1144 19.1457C14.5519 19.5832 15.1453 19.829 15.764 19.829Z" fill="#5DB075"/>
</svg>
