<svg width="47" height="47" viewBox="0 0 47 47" fill="none" xmlns="http://www.w3.org/2000/svg">
<circle cx="23.3282" cy="23.3282" r="23.3282" fill="#F0F0F0"/>
<path fill-rule="evenodd" clip-rule="evenodd" d="M19.0002 14.4585C19.0002 13.7733 19.2811 13.1162 19.7812 12.6317C20.2813 12.1472 20.9596 11.875 21.6668 11.875H24.3335C25.0407 11.875 25.719 12.1472 26.2191 12.6317C26.7192 13.1162 27.0002 13.7733 27.0002 14.4585V15.7502H32.3335C32.6871 15.7502 33.0263 15.8863 33.2763 16.1285C33.5264 16.3708 33.6668 16.6993 33.6668 17.0419C33.6668 17.3845 33.5264 17.7131 33.2763 17.9553C33.0263 18.1976 32.6871 18.3337 32.3335 18.3337H31.0002V31.251C31.0002 32.2787 30.5787 33.2644 29.8286 33.9911C29.0784 34.7179 28.061 35.1261 27.0002 35.1261H19.0002C17.9393 35.1261 16.9219 34.7179 16.1717 33.9911C15.4216 33.2644 15.0002 32.2787 15.0002 31.251V18.3337H13.6668C13.3132 18.3337 12.9741 18.1976 12.724 17.9553C12.474 17.7131 12.3335 17.3845 12.3335 17.0419C12.3335 16.6993 12.474 16.3708 12.724 16.1285C12.9741 15.8863 13.3132 15.7502 13.6668 15.7502H19.0002V14.4585ZM20.3335 18.3337H17.6668V31.251C17.6668 31.5935 17.8073 31.9221 18.0574 32.1643C18.3074 32.4066 18.6465 32.5427 19.0002 32.5427H27.0002C27.3538 32.5427 27.6929 32.4066 27.943 32.1643C28.193 31.9221 28.3335 31.5935 28.3335 31.251V18.3337H20.3335ZM24.3335 15.7502H21.6668V14.4585H24.3335V15.7502ZM20.3335 19.6254C20.6871 19.6254 21.0263 19.7615 21.2763 20.0037C21.5264 20.246 21.6668 20.5745 21.6668 20.9171V29.9592C21.6668 30.3018 21.5264 30.6304 21.2763 30.8726C21.0263 31.1149 20.6871 31.251 20.3335 31.251C19.9799 31.251 19.6407 31.1149 19.3907 30.8726C19.1406 30.6304 19.0002 30.3018 19.0002 29.9592V20.9171C19.0002 20.5745 19.1406 20.246 19.3907 20.0037C19.6407 19.7615 19.9799 19.6254 20.3335 19.6254V19.6254ZM25.6668 19.6254C26.0205 19.6254 26.3596 19.7615 26.6096 20.0037C26.8597 20.246 27.0002 20.5745 27.0002 20.9171V29.9592C27.0002 30.3018 26.8597 30.6304 26.6096 30.8726C26.3596 31.1149 26.0205 31.251 25.6668 31.251C25.3132 31.251 24.9741 31.1149 24.724 30.8726C24.474 30.6304 24.3335 30.3018 24.3335 29.9592V20.9171C24.3335 20.5745 24.474 20.246 24.724 20.0037C24.9741 19.7615 25.3132 19.6254 25.6668 19.6254V19.6254Z" fill="black"/>
</svg>
