<svg width="47" height="47" viewBox="0 0 47 47" fill="none" xmlns="http://www.w3.org/2000/svg">
<circle cx="23.3287" cy="23.3282" r="23.3282" fill="#F0F0F0"/>
<path fill-rule="evenodd" clip-rule="evenodd" d="M11.6645 11.6641C11.3551 11.6641 11.0584 11.787 10.8397 12.0057C10.6209 12.2245 10.498 12.5212 10.498 12.8305C10.498 13.1399 10.6209 13.4366 10.8397 13.6553C11.0584 13.8741 11.3551 13.997 11.6645 13.997H12.215C12.4709 13.9969 12.7198 14.0811 12.9232 14.2364C13.1266 14.3918 13.2733 14.6097 13.3406 14.8567L13.8258 16.6367L16.3301 25.8168V27.9946C16.3301 28.8041 16.6042 29.5483 17.0649 30.1409C16.7352 30.5127 16.5059 30.9626 16.3989 31.4479C16.2918 31.9333 16.3106 32.4379 16.4534 32.9139C16.5962 33.3899 16.8583 33.8216 17.2148 34.1678C17.5712 34.5141 18.0103 34.7635 18.4902 34.8924C18.9702 35.0213 19.4751 35.0253 19.9571 34.9042C20.4391 34.7831 20.8821 34.5408 21.2441 34.2004C21.6062 33.8599 21.8752 33.4326 22.0256 32.9589C22.1761 32.4852 22.203 31.981 22.1038 31.494H25.7197C25.6291 31.9393 25.6438 32.3996 25.7627 32.8382C25.8815 33.2767 26.1012 33.6815 26.4042 34.0201C26.7072 34.3587 27.0851 34.6218 27.5079 34.7885C27.9306 34.9551 28.3864 35.0206 28.8389 34.9798C29.2915 34.9391 29.7282 34.7931 30.1144 34.5535C30.5005 34.314 30.8253 33.9875 31.0629 33.6002C31.3004 33.2129 31.4442 32.7754 31.4827 32.3226C31.5212 31.8698 31.4534 31.4143 31.2847 30.9924C31.406 30.8175 31.4772 30.6127 31.4904 30.4002C31.5037 30.1877 31.4586 29.9757 31.3599 29.787C31.2613 29.5983 31.1129 29.4403 30.9308 29.3299C30.7487 29.2196 30.5399 29.1612 30.327 29.1611H19.8305C19.5212 29.1611 19.2245 29.0382 19.0057 28.8194C18.787 28.6007 18.6641 28.304 18.6641 27.9946V26.8281H30.6035C31.1154 26.8282 31.6131 26.66 32.0199 26.3493C32.4267 26.0386 32.72 25.6027 32.8546 25.1088L34.7617 18.11C34.8561 17.7637 34.8693 17.4003 34.8004 17.048C34.7314 16.6958 34.5821 16.3642 34.364 16.0791C34.146 15.794 33.8651 15.563 33.5432 15.4042C33.2213 15.2454 32.8671 15.163 32.5082 15.1635H15.8425L15.5918 14.242C15.3896 13.5013 14.9495 12.8478 14.3393 12.3819C13.7291 11.9161 12.9827 11.6638 12.215 11.6641H11.6645ZM28.5774 31.494C28.4227 31.494 28.2744 31.5555 28.165 31.6648C28.0557 31.7742 27.9942 31.9226 27.9942 32.0772C27.9942 32.2319 28.0557 32.3803 28.165 32.4897C28.2744 32.599 28.4227 32.6605 28.5774 32.6605C28.7321 32.6605 28.8804 32.599 28.9898 32.4897C29.0992 32.3803 29.1606 32.2319 29.1606 32.0772C29.1606 31.9226 29.0992 31.7742 28.9898 31.6648C28.8804 31.5555 28.7321 31.494 28.5774 31.494ZM30.6023 24.4952H18.3877L16.4782 17.4964H32.5094L30.6023 24.4952ZM19.2461 31.494C19.0915 31.494 18.9431 31.5555 18.8337 31.6648C18.7244 31.7742 18.6629 31.9226 18.6629 32.0772C18.6629 32.2319 18.7244 32.3803 18.8337 32.4897C18.9431 32.599 19.0915 32.6605 19.2461 32.6605C19.4008 32.6605 19.5491 32.599 19.6585 32.4897C19.7679 32.3803 19.8293 32.2319 19.8293 32.0772C19.8293 31.9226 19.7679 31.7742 19.6585 31.6648C19.5491 31.5555 19.4008 31.494 19.2461 31.494Z" fill="black"/>
</svg>
