<svg width="26" height="24" viewBox="0 0 26 24" fill="none" xmlns="http://www.w3.org/2000/svg">
<path fill-rule="evenodd" clip-rule="evenodd" d="M22.1273 21.4357V9.8046C22.1273 9.44561 22.4183 9.1546 22.7773 9.1546C23.1363 9.1546 23.4273 9.44561 23.4273 9.8046V21.4357C23.4273 23.0554 21.5676 23.969 20.2297 22.9312L17.7263 20.4951L15.5094 18.3887C15.3865 18.2724 15.2251 18.2078 15.0595 18.2078L3.0251 18.213L1.94296 18.2C0.86656 18.1883 0 17.3122 0 16.2357V1.95C0 0.873066 0.872463 0 1.95 0H24.05C25.1266 0 26 0.873415 26 1.95V17.55C26 17.909 25.709 18.2 25.35 18.2C24.991 18.2 24.7 17.909 24.7 17.55V1.95C24.7 1.59139 24.4086 1.3 24.05 1.3H1.95C1.59063 1.3 1.3 1.59084 1.3 1.95V16.2357C1.3 16.5997 1.59312 16.8961 1.9578 16.9L3.03262 16.913L15.0592 16.9078C15.5584 16.9078 16.0393 17.1003 16.4039 17.4454L18.6273 19.558L21.0801 21.9507C21.5073 22.2803 22.1273 21.9758 22.1273 21.4357ZM17.3257 8.87471C14.039 12.1614 8.70949 12.1614 5.42275 8.87471C5.16891 8.62087 5.16891 8.20931 5.42275 7.95547C5.67659 7.70163 6.08815 7.70163 6.34199 7.95547C9.12105 10.7345 13.6274 10.7345 16.4065 7.95547C16.6603 7.70163 17.0719 7.70163 17.3257 7.95547C17.5795 8.20931 17.5795 8.62087 17.3257 8.87471Z" fill="black"/>
</svg>
