<svg width="20" height="15" viewBox="0 0 20 15" fill="none" xmlns="http://www.w3.org/2000/svg">
<path fill-rule="evenodd" clip-rule="evenodd" d="M5.00061 14.9998L5.05163 14.9995H14.8067C17.4516 14.9995 19.7334 13.053 19.9767 10.4886C20.2589 7.53065 17.9454 4.99918 15.0007 4.99918C14.9931 4.99918 14.9856 4.99935 14.9781 4.99968C12.2271 5.01171 10.0002 7.24601 10.0002 9.9998C10.0002 10.276 10.2241 10.4998 10.5003 10.4998C10.7764 10.4998 11.0003 10.276 11.0003 9.9998C11.0003 7.79087 12.7915 5.99967 15.0004 5.99967C15.0072 5.99967 15.014 5.99953 15.0207 5.99926C17.3672 6.01069 19.2066 8.03075 18.9811 10.3939C18.7879 12.4309 16.9491 13.9995 14.8067 13.9995H8.002C8.26766 13.7998 8.51452 13.5728 8.73844 13.3209C8.9219 13.1145 8.90331 12.7984 8.69691 12.615C8.49051 12.4315 8.17447 12.4501 7.991 12.6565C7.24643 13.4942 6.18717 13.9867 5.04621 13.9995H5.0004C2.64349 13.9995 0.792075 11.9748 1.01899 9.60499C1.21314 7.56773 3.05213 5.99921 5.19441 5.99921C5.64921 5.99921 6.00043 5.6497 6.00043 5.21519C6.00043 3.0149 7.64777 1.13858 9.74264 1.00808C11.5457 0.895118 13.1699 1.98613 13.7661 3.64706C13.8594 3.90697 14.1457 4.04204 14.4056 3.94875C14.6655 3.85545 14.8006 3.56912 14.7073 3.3092C13.9621 1.23301 11.9314 -0.13104 9.68029 0.00999489C7.11226 0.169963 5.10792 2.38043 5.00459 5.00253C2.44139 5.09299 0.262014 7.00703 0.0234932 9.50989C-0.259235 12.4626 2.04615 14.9899 4.9836 14.9995L5.00061 14.9998ZM10.0006 2.9996C8.8957 2.9996 8.00052 3.89477 8.00052 4.99966C8.00052 5.27581 7.77666 5.49968 7.50051 5.49968C7.22436 5.49968 7.00049 5.27581 7.00049 4.99966C7.00049 3.34247 8.34339 1.99956 10.0006 1.99956C10.2767 1.99956 10.5006 2.22343 10.5006 2.49958C10.5006 2.77573 10.2767 2.9996 10.0006 2.9996Z" fill="#C4C4C4"/>
</svg>
