<svg width="23" height="23" viewBox="0 0 23 23" fill="none" xmlns="http://www.w3.org/2000/svg">
<path fill-rule="evenodd" clip-rule="evenodd" d="M2.08382 11.4998C2.08382 10.2687 2.32631 9.04961 2.79745 7.91218C3.26859 6.77475 3.95915 5.74126 4.8297 4.87071C5.70024 4.00016 6.73374 3.3096 7.87116 2.83847C9.00859 2.36733 10.2277 2.12484 11.4588 2.12484C12.69 2.12484 13.9091 2.36733 15.0465 2.83847C16.1839 3.3096 17.2174 4.00016 18.0879 4.87071C18.9585 5.74126 19.6491 6.77475 20.1202 7.91218C20.5913 9.04961 20.8338 10.2687 20.8338 11.4998C20.8338 13.9862 19.8461 16.3708 18.0879 18.129C16.3298 19.8871 13.9452 20.8748 11.4588 20.8748C8.97242 20.8748 6.58785 19.8871 4.8297 18.129C3.07154 16.3708 2.08382 13.9862 2.08382 11.4998ZM11.4588 0.0415039C5.1307 0.0415039 0.000488281 5.17171 0.000488281 11.4998C0.000488281 17.828 5.1307 22.9582 11.4588 22.9582C17.7869 22.9582 22.9172 17.828 22.9172 11.4998C22.9172 5.17171 17.7869 0.0415039 11.4588 0.0415039ZM6.98695 8.68005C6.79049 8.4903 6.52736 8.3853 6.25424 8.38768C5.98111 8.39005 5.71985 8.4996 5.52672 8.69274C5.33359 8.88587 5.22403 9.14713 5.22166 9.42025C5.21929 9.69338 5.32428 9.9565 5.51403 10.153L10.7224 15.3613C10.9177 15.5566 11.1826 15.6663 11.4588 15.6663C11.735 15.6663 11.9999 15.5566 12.1953 15.3613L17.4036 10.153C17.5934 9.9565 17.6984 9.69338 17.696 9.42025C17.6936 9.14713 17.5841 8.88587 17.3909 8.69274C17.1978 8.4996 16.9365 8.39005 16.6634 8.38768C16.3903 8.3853 16.1272 8.4903 15.9307 8.68005L11.4588 13.1519L6.98695 8.68005Z" fill="#5DB075"/>
</svg>
