<svg width="73" height="54" viewBox="0 0 73 54" fill="none" xmlns="http://www.w3.org/2000/svg">
<path d="M26.5228 39H27.5104V36.146H30.2909V35.299H27.5104V33.3047H30.5818V32.4545H26.5228V39ZM33.427 39.0991C34.8109 39.0991 35.7154 38.0859 35.7154 36.5678C35.7154 35.0401 34.8109 34.027 33.427 34.027C32.0431 34.027 31.1387 35.0401 31.1387 36.5678C31.1387 38.0859 32.0431 39.0991 33.427 39.0991ZM33.4302 38.2969C32.5257 38.2969 32.1039 37.5075 32.1039 36.5646C32.1039 35.625 32.5257 34.826 33.4302 34.826C34.3283 34.826 34.7502 35.625 34.7502 36.5646C34.7502 37.5075 34.3283 38.2969 33.4302 38.2969ZM38.8499 39.0991C40.2338 39.0991 41.1382 38.0859 41.1382 36.5678C41.1382 35.0401 40.2338 34.027 38.8499 34.027C37.466 34.027 36.5615 35.0401 36.5615 36.5678C36.5615 38.0859 37.466 39.0991 38.8499 39.0991ZM38.8531 38.2969C37.9486 38.2969 37.5267 37.5075 37.5267 36.5646C37.5267 35.625 37.9486 34.826 38.8531 34.826C39.7512 34.826 40.173 35.625 40.173 36.5646C40.173 37.5075 39.7512 38.2969 38.8531 38.2969ZM44.0426 39.0959C44.9375 39.0959 45.2891 38.5494 45.4616 38.2362H45.5415V39H46.4748V32.4545H45.5192V34.8867H45.4616C45.2891 34.5831 44.9631 34.027 44.049 34.027C42.8633 34.027 41.9908 34.9634 41.9908 36.555C41.9908 38.1435 42.8505 39.0959 44.0426 39.0959ZM44.2536 38.2809C43.4002 38.2809 42.956 37.5298 42.956 36.5455C42.956 35.5707 43.3906 34.8388 44.2536 34.8388C45.0877 34.8388 45.5352 35.5195 45.5352 36.5455C45.5352 37.5778 45.0781 38.2809 44.2536 38.2809Z" fill="#5DB075"/>
<path fill-rule="evenodd" clip-rule="evenodd" d="M32.1414 3.79305C31.8195 4.35993 31.5279 5.06211 31.2502 5.89259C29.1064 11.6978 25.7903 20.1905 24.1888 24.2682C23.4621 26.1193 25.2327 27.9728 27.1165 27.3324C31.2176 25.9339 39.7021 23.0633 45.5026 21.2344L45.5201 21.2297C46.3529 20.9521 47.0551 20.6675 47.6197 20.3549C48.176 20.0435 48.6753 19.6609 49.0112 19.1535C49.7764 17.9941 49.3518 16.7799 48.8456 15.8409C45.6613 9.93887 41.6803 5.78995 36.7102 2.63131C36.2355 2.33038 35.7036 2.07376 35.1297 1.99328C34.513 1.90072 33.8839 2.04218 33.3661 2.38986C32.8564 2.72695 32.4645 3.22735 32.1414 3.79305ZM40.2025 11.4051C38.3595 9.43732 36.351 7.77402 33.7452 5.85294C33.8933 5.48318 34.0345 5.18458 34.1698 4.94664C34.3937 4.55239 34.564 4.39376 34.6527 4.33544C34.7063 4.30044 34.7343 4.29345 34.8043 4.30278C34.9151 4.31911 35.1227 4.38676 35.4587 4.60021C40.0893 7.5419 43.795 11.3922 46.7927 16.949C47.2102 17.7223 47.0749 17.8565 47.0644 17.867V17.8681C47.0155 17.9416 46.872 18.0991 46.4836 18.316C46.262 18.4397 45.9855 18.568 45.6438 18.7045C43.7087 15.6286 42.0524 13.3786 40.2025 11.4051ZM38.4995 12.9995C40.1208 14.7282 41.6103 16.7157 43.3646 19.4661C37.648 21.2962 30.1375 23.8378 26.363 25.1232H26.3607V25.1209C27.8338 21.3697 30.7685 13.8557 32.9054 8.1356C35.1834 9.83973 36.9167 11.3094 38.5007 12.9995H38.4995ZM34.2643 15.9634C34.883 15.9634 35.4763 15.7176 35.9138 15.2801C36.3513 14.8426 36.5971 14.2493 36.5971 13.6306C36.5971 13.0119 36.3513 12.4185 35.9138 11.981C35.4763 11.5435 34.883 11.2977 34.2643 11.2977C33.6456 11.2977 33.0522 11.5435 32.6147 11.981C32.1772 12.4185 31.9314 13.0119 31.9314 13.6306C31.9314 14.2493 32.1772 14.8426 32.6147 15.2801C33.0522 15.7176 33.6456 15.9634 34.2643 15.9634ZM34.2643 19.4626C34.2643 20.0813 34.0185 20.6747 33.581 21.1122C33.1435 21.5497 32.5501 21.7954 31.9314 21.7954C31.3127 21.7954 30.7194 21.5497 30.2819 21.1122C29.8444 20.6747 29.5986 20.0813 29.5986 19.4626C29.5986 18.8439 29.8444 18.2506 30.2819 17.8131C30.7194 17.3756 31.3127 17.1298 31.9314 17.1298C32.5501 17.1298 33.1435 17.3756 33.581 17.8131C34.0185 18.2506 34.2643 18.8439 34.2643 19.4626ZM37.7635 20.629C38.3822 20.629 38.9756 20.3833 39.413 19.9458C39.8505 19.5083 40.0963 18.9149 40.0963 18.2962C40.0963 17.6775 39.8505 17.0841 39.413 16.6467C38.9756 16.2092 38.3822 15.9634 37.7635 15.9634C37.1448 15.9634 36.5514 16.2092 36.1139 16.6467C35.6764 17.0841 35.4307 17.6775 35.4307 18.2962C35.4307 18.9149 35.6764 19.5083 36.1139 19.9458C36.5514 20.3833 37.1448 20.629 37.7635 20.629Z" fill="#5DB075"/>
</svg>
