<svg width="47" height="47" viewBox="0 0 47 47" fill="none" xmlns="http://www.w3.org/2000/svg">
<circle cx="23.3287" cy="23.3282" r="23.3282" fill="#F0F0F0"/>
<path fill-rule="evenodd" clip-rule="evenodd" d="M18.8728 12.324C18.5509 12.8909 18.2593 13.5931 17.9817 14.4236C15.8378 20.2288 12.5217 28.7214 10.9202 32.7992C10.1936 34.6503 11.9642 36.5037 13.8479 35.8634C17.949 34.4648 26.4335 31.5943 32.2341 29.7654L32.2516 29.7607C33.0844 29.4831 33.7866 29.1985 34.3511 28.8859C34.9075 28.5745 35.4067 28.1919 35.7426 27.6845C36.5078 26.5251 36.0832 25.3109 35.577 24.3719C32.3927 18.4698 28.4117 14.3209 23.4417 11.1623C22.9669 10.8614 22.4351 10.6047 21.8612 10.5243C21.2444 10.4317 20.6153 10.5732 20.0976 10.9208C19.5878 11.2579 19.1959 11.7583 18.8728 12.324ZM26.9339 19.936C25.091 17.9683 23.0824 16.305 20.4766 14.3839C20.6248 14.0142 20.7659 13.7156 20.9012 13.4776C21.1252 13.0834 21.2955 12.9247 21.3841 12.8664C21.4378 12.8314 21.4658 12.8244 21.5357 12.8338C21.6466 12.8501 21.8542 12.9177 22.1901 13.1312C26.8208 16.0729 30.5264 19.9232 33.5241 25.48C33.9417 26.2533 33.8064 26.3874 33.7959 26.3979V26.3991C33.7469 26.4726 33.6034 26.6301 33.215 26.847C32.9934 26.9707 32.717 27.099 32.3752 27.2354C30.4401 24.1596 28.7838 21.9096 26.9339 19.936ZM25.2309 21.5305C26.8522 23.2591 28.3418 25.2467 30.096 27.9971C24.3795 29.8272 16.8689 32.3688 13.0944 33.6542H13.0921V33.6519C14.5653 29.9007 17.5 22.3867 19.6368 16.6666C21.9148 18.3707 23.6481 19.8404 25.2321 21.5305H25.2309ZM20.9957 24.4944C21.6144 24.4944 22.2078 24.2486 22.6453 23.8111C23.0827 23.3736 23.3285 22.7802 23.3285 22.1615C23.3285 21.5428 23.0827 20.9495 22.6453 20.512C22.2078 20.0745 21.6144 19.8287 20.9957 19.8287C20.377 19.8287 19.7836 20.0745 19.3461 20.512C18.9087 20.9495 18.6629 21.5428 18.6629 22.1615C18.6629 22.7802 18.9087 23.3736 19.3461 23.8111C19.7836 24.2486 20.377 24.4944 20.9957 24.4944ZM20.9957 27.9936C20.9957 28.6123 20.7499 29.2057 20.3124 29.6431C19.8749 30.0806 19.2816 30.3264 18.6629 30.3264C18.0442 30.3264 17.4508 30.0806 17.0133 29.6431C16.5758 29.2057 16.3301 28.6123 16.3301 27.9936C16.3301 27.3749 16.5758 26.7815 17.0133 26.344C17.4508 25.9066 18.0442 25.6608 18.6629 25.6608C19.2816 25.6608 19.8749 25.9066 20.3124 26.344C20.7499 26.7815 20.9957 27.3749 20.9957 27.9936ZM24.4949 29.16C25.1136 29.16 25.707 28.9142 26.1445 28.4767C26.582 28.0392 26.8278 27.4459 26.8278 26.8272C26.8278 26.2085 26.582 25.6151 26.1445 25.1776C25.707 24.7401 25.1136 24.4944 24.4949 24.4944C23.8762 24.4944 23.2829 24.7401 22.8454 25.1776C22.4079 25.6151 22.1621 26.2085 22.1621 26.8272C22.1621 27.4459 22.4079 28.0392 22.8454 28.4767C23.2829 28.9142 23.8762 29.16 24.4949 29.16Z" fill="black"/>
</svg>
