<svg width="73" height="52" viewBox="0 0 73 52" fill="none" xmlns="http://www.w3.org/2000/svg">
<path d="M20.3325 32.174H21.2849C21.2562 31.1257 20.3293 30.3651 18.9998 30.3651C17.6862 30.3651 16.6795 31.1161 16.6795 32.2443C16.6795 33.1552 17.3315 33.6889 18.3829 33.9734L19.1564 34.1843C19.8563 34.3697 20.3964 34.5998 20.3964 35.1815C20.3964 35.8207 19.786 36.2425 18.9454 36.2425C18.1848 36.2425 17.552 35.9038 17.4945 35.1911H16.5037C16.5676 36.3768 17.4849 37.1087 18.9518 37.1087C20.4891 37.1087 21.3744 36.3001 21.3744 35.1911C21.3744 34.0117 20.3229 33.5547 19.492 33.3501L18.8528 33.1839C18.3414 33.0529 17.6606 32.8132 17.6638 32.1868C17.6638 31.6307 18.172 31.2184 18.9774 31.2184C19.7285 31.2184 20.2622 31.57 20.3325 32.174ZM23.4335 34.0852C23.4335 33.3022 23.9288 32.8548 24.6096 32.8548C25.268 32.8548 25.6611 33.2734 25.6611 33.9925V37H26.6167V33.8775C26.6167 32.6534 25.9455 32.027 24.9356 32.027C24.1717 32.027 23.7115 32.3594 23.4814 32.8899H23.4207V30.4545H22.4778V37H23.4335V34.0852ZM29.9597 37.0991C31.3436 37.0991 32.2481 36.0859 32.2481 34.5678C32.2481 33.0401 31.3436 32.027 29.9597 32.027C28.5759 32.027 27.6714 33.0401 27.6714 34.5678C27.6714 36.0859 28.5759 37.0991 29.9597 37.0991ZM29.9629 36.2969C29.0585 36.2969 28.6366 35.5075 28.6366 34.5646C28.6366 33.625 29.0585 32.826 29.9629 32.826C30.861 32.826 31.2829 33.625 31.2829 34.5646C31.2829 35.5075 30.861 36.2969 29.9629 36.2969ZM33.3148 38.8409H34.2704V36.2362H34.3279C34.5005 36.5494 34.8521 37.0959 35.7469 37.0959C36.9359 37.0959 37.7988 36.1435 37.7988 34.555C37.7988 32.9634 36.9231 32.027 35.7373 32.027C34.8265 32.027 34.4973 32.5831 34.3279 32.8867H34.248V32.0909H33.3148V38.8409ZM34.2512 34.5455C34.2512 33.5195 34.6986 32.8388 35.5328 32.8388C36.3989 32.8388 36.8336 33.5707 36.8336 34.5455C36.8336 35.5298 36.3861 36.2809 35.5328 36.2809C34.7114 36.2809 34.2512 35.5778 34.2512 34.5455ZM38.8695 38.8409H39.8251V36.2362H39.8826C40.0552 36.5494 40.4067 37.0959 41.3016 37.0959C42.4905 37.0959 43.3535 36.1435 43.3535 34.555C43.3535 32.9634 42.4778 32.027 41.292 32.027C40.3812 32.027 40.052 32.5831 39.8826 32.8867H39.8027V32.0909H38.8695V38.8409ZM39.8059 34.5455C39.8059 33.5195 40.2533 32.8388 41.0875 32.8388C41.9536 32.8388 42.3883 33.5707 42.3883 34.5455C42.3883 35.5298 41.9408 36.2809 41.0875 36.2809C40.2661 36.2809 39.8059 35.5778 39.8059 34.5455ZM44.4241 37H45.3797V32.0909H44.4241V37ZM44.9067 31.3335C45.2359 31.3335 45.5108 31.0778 45.5108 30.7646C45.5108 30.4513 45.2359 30.1925 44.9067 30.1925C44.5744 30.1925 44.3027 30.4513 44.3027 30.7646C44.3027 31.0778 44.5744 31.3335 44.9067 31.3335ZM47.621 34.0852C47.621 33.3022 48.1004 32.8548 48.7651 32.8548C49.4139 32.8548 49.807 33.2798 49.807 33.9925V37H50.7627V33.8775C50.7627 32.663 50.0947 32.027 49.0911 32.027C48.3528 32.027 47.8703 32.369 47.6433 32.8899H47.5826V32.0909H46.6653V37H47.621V34.0852ZM54.1025 38.9432C55.3521 38.9432 56.3173 38.3711 56.3173 37.1087V32.0909H55.3809V32.8867H55.3106C55.1412 32.5831 54.8024 32.027 53.8884 32.027C52.7026 32.027 51.8301 32.9634 51.8301 34.5263C51.8301 36.0923 52.7218 36.9265 53.882 36.9265C54.7832 36.9265 55.1316 36.4183 55.3042 36.1051H55.3649V37.0703C55.3649 37.8406 54.8376 38.1729 54.1121 38.1729C53.3163 38.1729 53.0063 37.7734 52.8369 37.4922L52.0155 37.831C52.2744 38.4318 52.9296 38.9432 54.1025 38.9432ZM54.0929 36.1339C53.2396 36.1339 52.7953 35.4787 52.7953 34.5135C52.7953 33.5707 53.23 32.8388 54.0929 32.8388C54.9271 32.8388 55.3745 33.5195 55.3745 34.5135C55.3745 35.5266 54.9175 36.1339 54.0929 36.1339Z" fill="#5DB075"/>
<path fill-rule="evenodd" clip-rule="evenodd" d="M25.3329 2.33295C25.0236 2.33295 24.7269 2.45584 24.5081 2.6746C24.2894 2.89335 24.1665 3.19005 24.1665 3.49941C24.1665 3.80878 24.2894 4.10548 24.5081 4.32423C24.7269 4.54299 25.0236 4.66588 25.3329 4.66588H25.8835C26.1394 4.66583 26.3883 4.74997 26.5917 4.90532C26.7951 5.06068 26.9417 5.27862 27.009 5.52557L27.4943 7.3056L29.9986 16.4857V18.6635C29.9986 19.473 30.2727 20.2172 30.7334 20.8098C30.4036 21.1816 30.1744 21.6315 30.0673 22.1168C29.9603 22.6021 29.9791 23.1068 30.1219 23.5828C30.2647 24.0588 30.5267 24.4904 30.8832 24.8367C31.2397 25.183 31.6788 25.4324 32.1587 25.5613C32.6387 25.6902 33.1436 25.6942 33.6256 25.5731C34.1075 25.452 34.5506 25.2097 34.9126 24.8692C35.2746 24.5288 35.5436 24.1014 35.6941 23.6278C35.8446 23.1541 35.8715 22.6499 35.7723 22.1629H39.3882C39.2976 22.6082 39.3123 23.0685 39.4311 23.507C39.55 23.9456 39.7696 24.3504 40.0726 24.689C40.3757 25.0276 40.7536 25.2907 41.1763 25.4573C41.599 25.624 42.0549 25.6895 42.5074 25.6487C42.9599 25.6079 43.3967 25.462 43.7828 25.2224C44.1689 24.9829 44.4937 24.6564 44.7313 24.2691C44.9689 23.8817 45.1127 23.4442 45.1512 22.9915C45.1897 22.5387 45.1219 22.0832 44.9531 21.6613C45.0745 21.4864 45.1456 21.2816 45.1589 21.0691C45.1722 20.8566 45.127 20.6446 45.0284 20.4559C44.9297 20.2672 44.7813 20.1092 44.5992 19.9988C44.4172 19.8885 44.2084 19.8301 43.9955 19.83H33.499C33.1896 19.83 32.8929 19.7071 32.6742 19.4883C32.4554 19.2696 32.3325 18.9729 32.3325 18.6635V17.497H44.2719C44.7838 17.4971 45.2815 17.3289 45.6883 17.0181C46.0952 16.7074 46.3885 16.2715 46.5231 15.7777L48.4302 8.77885C48.5246 8.43255 48.5378 8.06914 48.4688 7.7169C48.3998 7.36465 48.2505 7.03308 48.0325 6.74798C47.8144 6.46287 47.5335 6.23193 47.2116 6.07312C46.8898 5.91431 46.5356 5.83192 46.1767 5.83235H29.511L29.2602 4.91084C29.0581 4.17022 28.618 3.51664 28.0078 3.0508C27.3976 2.58496 26.6511 2.33272 25.8835 2.33295H25.3329ZM42.2459 22.1629C42.0912 22.1629 41.9429 22.2243 41.8335 22.3337C41.7241 22.4431 41.6627 22.5914 41.6627 22.7461C41.6627 22.9008 41.7241 23.0492 41.8335 23.1585C41.9429 23.2679 42.0912 23.3294 42.2459 23.3294C42.4006 23.3294 42.5489 23.2679 42.6583 23.1585C42.7676 23.0492 42.8291 22.9008 42.8291 22.7461C42.8291 22.5914 42.7676 22.4431 42.6583 22.3337C42.5489 22.2243 42.4006 22.1629 42.2459 22.1629ZM44.2708 15.1641H32.0561L30.1467 8.16528H46.1778L44.2708 15.1641ZM32.9146 22.1629C32.7599 22.1629 32.6116 22.2243 32.5022 22.3337C32.3928 22.4431 32.3314 22.5914 32.3314 22.7461C32.3314 22.9008 32.3928 23.0492 32.5022 23.1585C32.6116 23.2679 32.7599 23.3294 32.9146 23.3294C33.0693 23.3294 33.2176 23.2679 33.327 23.1585C33.4363 23.0492 33.4978 22.9008 33.4978 22.7461C33.4978 22.5914 33.4363 22.4431 33.327 22.3337C33.2176 22.2243 33.0693 22.1629 32.9146 22.1629Z" fill="#5DB075"/>
</svg>
