<svg width="38" height="27" viewBox="0 0 38 27" fill="none" xmlns="http://www.w3.org/2000/svg">
<path fill-rule="evenodd" clip-rule="evenodd" d="M31.2373 1.54802C33.8245 3.39582 35.6007 6.17234 36.1577 9.36679C36.3156 10.2719 36.3712 11.1809 36.3263 12.082C36.3135 12.3403 36.5124 12.5602 36.7708 12.573C37.0291 12.5859 37.2489 12.3869 37.2618 12.1286C37.3101 11.1582 37.2502 10.1796 37.0804 9.20589C36.4807 5.76657 34.5671 2.77515 31.7816 0.785819C31.5712 0.635497 31.2787 0.684263 31.1284 0.89474C30.978 1.10522 31.0268 1.3977 31.2373 1.54802ZM34.1599 18.4083C35.0943 17.0658 35.7509 15.5487 36.0854 13.9463C36.1383 13.6931 36.3864 13.5307 36.6396 13.5836C36.8927 13.6365 37.0551 13.8846 37.0023 14.1377C36.6419 15.864 35.9348 17.4978 34.9287 18.9434C34.7809 19.1557 34.489 19.208 34.2768 19.0602C34.0645 18.9125 34.0121 18.6206 34.1599 18.4083ZM33.3898 9.84952C32.9571 7.3681 31.5689 5.21539 29.5497 3.79584C29.3381 3.64709 29.2872 3.35497 29.436 3.14338C29.5847 2.9318 29.8768 2.88086 30.0884 3.02961C32.3088 4.59062 33.8367 6.95998 34.3125 9.68862C34.7881 12.4163 34.1525 15.1628 32.5917 17.3842C32.443 17.5958 32.1509 17.6469 31.9393 17.4982C31.7276 17.3495 31.6766 17.0574 31.8253 16.8457C33.2448 14.8255 33.8223 12.33 33.3898 9.84952ZM20.3374 20.8695L4.11635 21.7511C4.02665 21.7559 3.9378 21.7547 3.85021 21.7479L3.98861 22.2644C4.08482 22.6235 3.87175 22.9925 3.51271 23.0887C3.15367 23.1849 2.78462 22.9719 2.68842 22.6128L2.06329 20.2798L2.05703 20.257L0.880522 15.8662L0.874534 15.8433L0.24971 13.5114C0.153504 13.1524 0.366576 12.7834 0.725615 12.6872C1.08465 12.591 1.4537 12.804 1.54991 13.1631L1.68837 13.6798C1.761 13.63 1.83757 13.5844 1.91787 13.5435L22.7743 2.96757C23.9182 2.38743 25.3059 3.00725 25.6376 4.24506L29.3079 17.9426C29.6398 19.1814 28.7483 20.4124 27.4673 20.4819L21.7109 20.7948L21.9395 21.6477C22.2283 22.7258 21.5898 23.8317 20.5117 24.1206L12.7106 26.2109C11.6325 26.4998 10.5265 25.8612 10.2377 24.7832L9.88616 23.4713C9.78995 23.1122 10.003 22.7432 10.3621 22.647C10.7211 22.5508 11.0901 22.7639 11.1864 23.1229L11.5379 24.4348C11.6343 24.7948 12.0022 25.0072 12.3622 24.9107L20.1634 22.8204C20.5233 22.7239 20.7357 22.3561 20.6393 21.9961L20.3374 20.8695ZM4.04404 20.4072C3.73113 20.4239 3.4489 20.2231 3.36138 19.9236L2.17695 15.5032C2.10329 15.2012 2.24744 14.8862 2.52731 14.7439L23.3831 4.16828C23.7644 3.97494 24.227 4.18157 24.3374 4.59364L28.0077 18.2912C28.1184 18.7045 27.8212 19.1149 27.3943 19.138L21.355 19.4663L21.0654 18.3855C20.9691 18.0265 20.6001 17.8134 20.2411 17.9096C19.882 18.0058 19.669 18.3749 19.7652 18.7339L19.9814 19.541L4.04404 20.4072Z" fill="black"/>
</svg>
