<svg width="20" height="19" viewBox="0 0 20 19" fill="none" xmlns="http://www.w3.org/2000/svg">
<path fill-rule="evenodd" clip-rule="evenodd" d="M15.9968 3.0071V0.500016C15.9968 0.223865 15.773 0 15.4968 0C15.2207 0 14.9968 0.223865 14.9968 0.500016V3.29724L12.8774 5.41666C11.8315 4.52993 10.4779 3.99509 8.9993 3.99509C5.68605 3.99509 2.9991 6.68204 2.9991 9.99529C2.9991 11.1766 3.34181 12.3084 3.97481 13.2753C4.12607 13.5063 4.43599 13.571 4.66703 13.4197C4.89807 13.2685 4.96275 12.9585 4.81149 12.7275C4.28429 11.9222 3.99914 10.9805 3.99914 9.99529C3.99914 7.23434 6.23835 4.99512 8.9993 4.99512C10.2017 4.99512 11.3049 5.41953 12.1674 6.12668L10.462 7.83206C10.4454 7.84494 10.4294 7.85901 10.4141 7.87427C10.3988 7.88953 10.3848 7.90554 10.3719 7.92217L8.65037 9.64368C8.4551 9.83895 8.4551 10.1555 8.65037 10.3508C8.84564 10.5461 9.16223 10.5461 9.3575 10.3508L10.7252 8.98314C10.9027 9.28516 10.9997 9.63249 10.9997 9.99589C10.9997 11.1002 10.1041 11.996 8.9996 11.996C7.8957 11.996 6.99953 11.0998 6.99953 9.99589C6.99953 9.04211 7.67392 8.22528 8.5972 8.0356C8.86771 7.98003 9.04194 7.71569 8.98637 7.44519C8.93079 7.17469 8.66646 7.00045 8.39596 7.05603C7.01013 7.34074 5.9995 8.56482 5.9995 9.99589C5.9995 11.6521 7.3434 12.996 8.9996 12.996C10.6565 12.996 11.9997 11.6524 11.9997 9.99589C11.9997 9.3629 11.8025 8.76054 11.4477 8.26065L12.8738 6.83447C13.5774 7.69592 13.9995 8.79636 13.9995 9.99529C13.9995 12.7566 11.7609 14.9955 8.9993 14.9955C8.00458 14.9955 7.05357 14.7043 6.24123 14.1665C6.01097 14.0141 5.70073 14.0771 5.54828 14.3074C5.39583 14.5377 5.45891 14.8479 5.68917 15.0004C6.66389 15.6457 7.8066 15.9955 8.9993 15.9955C12.3132 15.9955 14.9995 13.3089 14.9995 9.99529C14.9995 8.52014 14.4671 7.16925 13.584 6.12434L15.7012 4.00713H18.5029C18.7791 4.00713 19.0029 3.78327 19.0029 3.50712C19.0029 3.23096 18.7791 3.0071 18.5029 3.0071H15.9968ZM17.0006 9.99564C17.0006 8.48716 16.5829 7.04232 15.8055 5.78788C15.66 5.55315 15.7324 5.24494 15.9671 5.09947C16.2019 4.954 16.5101 5.02637 16.6556 5.2611C17.5303 6.6726 18.0006 8.29962 18.0006 9.99564C18.0006 14.9659 13.9706 18.9959 9.0003 18.9959C4.02933 18.9959 0 14.9663 0 9.99564C0 5.02433 4.02899 0.995342 9.0003 0.995342C9.90171 0.995342 10.7873 1.12851 11.6352 1.3871C11.8994 1.46765 12.0482 1.74708 11.9676 2.01122C11.8871 2.27536 11.6077 2.42419 11.3435 2.34364C10.5897 2.11376 9.80244 1.99537 9.0003 1.99537C4.58129 1.99537 1.00003 5.57664 1.00003 9.99564C1.00003 14.414 4.58165 17.9959 9.0003 17.9959C13.4183 17.9959 17.0006 14.4136 17.0006 9.99564Z" fill="#C4C4C4"/>
</svg>
