<svg width="73" height="50" viewBox="0 0 73 50" fill="none" xmlns="http://www.w3.org/2000/svg">
<path d="M5.05793 29.3047H7.09699V35H8.08137V29.3047H10.1236V28.4545H5.05793V29.3047ZM10.6566 35H11.6122V32.0021C11.6122 31.3597 12.1076 30.8963 12.7851 30.8963C12.9833 30.8963 13.207 30.9315 13.2837 30.9538V30.0398C13.1878 30.027 12.9992 30.0174 12.8778 30.0174C12.3025 30.0174 11.8103 30.3434 11.6313 30.8707H11.5802V30.0909H10.6566V35ZM15.4953 35.1087C16.3071 35.1087 16.7642 34.6964 16.9463 34.3288H16.9847V35H17.9179V31.7401C17.9179 30.3114 16.7929 30.027 16.0131 30.027C15.1246 30.027 14.3064 30.3849 13.9868 31.2798L14.8849 31.4844C15.0255 31.136 15.3835 30.8004 16.0259 30.8004C16.6427 30.8004 16.9591 31.1232 16.9591 31.6793V31.7017C16.9591 32.0501 16.6012 32.0437 15.7191 32.146C14.789 32.2546 13.8366 32.4975 13.8366 33.6129C13.8366 34.5781 14.5621 35.1087 15.4953 35.1087ZM15.7031 34.3416C15.163 34.3416 14.773 34.0987 14.773 33.6257C14.773 33.1143 15.2269 32.9322 15.7798 32.8587C16.0898 32.8171 16.8249 32.734 16.9623 32.5966V33.2294C16.9623 33.8111 16.4989 34.3416 15.7031 34.3416ZM20.1464 32.0852C20.1464 31.3022 20.6258 30.8548 21.2905 30.8548C21.9393 30.8548 22.3324 31.2798 22.3324 31.9925V35H23.288V31.8775C23.288 30.663 22.6201 30.027 21.6165 30.027C20.8782 30.027 20.3956 30.369 20.1687 30.8899H20.108V30.0909H19.1907V35H20.1464V32.0852ZM28.2483 31.2894C28.0501 30.5256 27.4525 30.027 26.3914 30.027C25.2824 30.027 24.4961 30.6119 24.4961 31.4812C24.4961 32.1779 24.918 32.6413 25.8385 32.8459L26.6694 33.0281C27.1424 33.1335 27.363 33.3445 27.363 33.6513C27.363 34.0316 26.9571 34.3288 26.3307 34.3288C25.7586 34.3288 25.391 34.0827 25.276 33.6001L24.3523 33.7408C24.5121 34.6101 25.2344 35.0991 26.337 35.0991C27.5228 35.0991 28.3441 34.4695 28.3441 33.581C28.3441 32.8874 27.9031 32.4592 27.0018 32.2514L26.222 32.0724C25.6819 31.9446 25.4486 31.7624 25.4517 31.43C25.4486 31.0529 25.8576 30.7844 26.401 30.7844C26.9954 30.7844 27.2703 31.1136 27.3821 31.4428L28.2483 31.2894ZM29.3948 36.8409H30.3505V34.2362H30.408C30.5806 34.5494 30.9321 35.0959 31.827 35.0959C33.0159 35.0959 33.8789 34.1435 33.8789 32.555C33.8789 30.9634 33.0032 30.027 31.8174 30.027C30.9066 30.027 30.5774 30.5831 30.408 30.8867H30.3281V30.0909H29.3948V36.8409ZM30.3313 32.5455C30.3313 31.5195 30.7787 30.8388 31.6129 30.8388C32.479 30.8388 32.9137 31.5707 32.9137 32.5455C32.9137 33.5298 32.4662 34.2809 31.6129 34.2809C30.7915 34.2809 30.3313 33.5778 30.3313 32.5455ZM37.0174 35.0991C38.4012 35.0991 39.3057 34.0859 39.3057 32.5678C39.3057 31.0401 38.4012 30.027 37.0174 30.027C35.6335 30.027 34.729 31.0401 34.729 32.5678C34.729 34.0859 35.6335 35.0991 37.0174 35.0991ZM37.0206 34.2969C36.1161 34.2969 35.6942 33.5075 35.6942 32.5646C35.6942 31.625 36.1161 30.826 37.0206 30.826C37.9186 30.826 38.3405 31.625 38.3405 32.5646C38.3405 33.5075 37.9186 34.2969 37.0206 34.2969ZM40.3724 35H41.328V32.0021C41.328 31.3597 41.8234 30.8963 42.5009 30.8963C42.6991 30.8963 42.9228 30.9315 42.9995 30.9538V30.0398C42.9036 30.027 42.7151 30.0174 42.5936 30.0174C42.0183 30.0174 41.5261 30.3434 41.3472 30.8707H41.296V30.0909H40.3724V35ZM46.4081 30.0909H45.4013V28.9148H44.4457V30.0909H43.7266V30.858H44.4457V33.7567C44.4425 34.6484 45.1233 35.0799 45.8775 35.0639C46.1812 35.0607 46.3857 35.0032 46.4976 34.9616L46.325 34.1722C46.2611 34.185 46.1428 34.2138 45.9894 34.2138C45.6794 34.2138 45.4013 34.1115 45.4013 33.5586V30.858H46.4081V30.0909ZM48.8938 35.1087C49.7056 35.1087 50.1626 34.6964 50.3448 34.3288H50.3831V35H51.3164V31.7401C51.3164 30.3114 50.1914 30.027 49.4115 30.027C48.523 30.027 47.7049 30.3849 47.3853 31.2798L48.2833 31.4844C48.424 31.136 48.7819 30.8004 49.4243 30.8004C50.0411 30.8004 50.3576 31.1232 50.3576 31.6793V31.7017C50.3576 32.0501 49.9996 32.0437 49.1175 32.146C48.1875 32.2546 47.235 32.4975 47.235 33.6129C47.235 34.5781 47.9605 35.1087 48.8938 35.1087ZM49.1015 34.3416C48.5614 34.3416 48.1715 34.0987 48.1715 33.6257C48.1715 33.1143 48.6253 32.9322 49.1782 32.8587C49.4882 32.8171 50.2233 32.734 50.3608 32.5966V33.2294C50.3608 33.8111 49.8973 34.3416 49.1015 34.3416ZM54.8807 30.0909H53.874V28.9148H52.9184V30.0909H52.1993V30.858H52.9184V33.7567C52.9152 34.6484 53.5959 35.0799 54.3502 35.0639C54.6538 35.0607 54.8584 35.0032 54.9702 34.9616L54.7976 34.1722C54.7337 34.185 54.6155 34.2138 54.462 34.2138C54.152 34.2138 53.874 34.1115 53.874 33.5586V30.858H54.8807V30.0909ZM55.9378 35H56.8934V30.0909H55.9378V35ZM56.4204 29.3335C56.7496 29.3335 57.0245 29.0778 57.0245 28.7646C57.0245 28.4513 56.7496 28.1925 56.4204 28.1925C56.088 28.1925 55.8164 28.4513 55.8164 28.7646C55.8164 29.0778 56.088 29.3335 56.4204 29.3335ZM60.2468 35.0991C61.6307 35.0991 62.5352 34.0859 62.5352 32.5678C62.5352 31.0401 61.6307 30.027 60.2468 30.027C58.863 30.027 57.9585 31.0401 57.9585 32.5678C57.9585 34.0859 58.863 35.0991 60.2468 35.0991ZM60.25 34.2969C59.3456 34.2969 58.9237 33.5075 58.9237 32.5646C58.9237 31.625 59.3456 30.826 60.25 30.826C61.1481 30.826 61.57 31.625 61.57 32.5646C61.57 33.5075 61.1481 34.2969 60.25 34.2969ZM64.5575 32.0852C64.5575 31.3022 65.0369 30.8548 65.7017 30.8548C66.3505 30.8548 66.7436 31.2798 66.7436 31.9925V35H67.6992V31.8775C67.6992 30.663 67.0312 30.027 66.0277 30.027C65.2894 30.027 64.8068 30.369 64.5799 30.8899H64.5191V30.0909H63.6019V35H64.5575V32.0852Z" fill="#5DB075"/>
<path fill-rule="evenodd" clip-rule="evenodd" d="M41 4.50022C41.5967 4.50022 42.169 4.26316 42.591 3.84118C43.0129 3.4192 43.25 2.84688 43.25 2.25011C43.25 1.65334 43.0129 1.08102 42.591 0.659042C42.169 0.237064 41.5967 0 41 0C40.4033 0 39.831 0.237064 39.409 0.659042C38.9871 1.08102 38.75 1.65334 38.75 2.25011C38.75 2.84688 38.9871 3.4192 39.409 3.84118C39.831 4.26316 40.4033 4.50022 41 4.50022ZM37.8984 3.97144C38.0815 4.01734 38.2501 4.10859 38.3887 4.23678C38.5273 4.36497 38.6315 4.52598 38.6915 4.70498C38.8962 5.31589 39.182 5.85029 39.5341 6.30031C40.5039 7.53787 42.0688 8.2444 44.1905 7.89114C44.3382 7.86196 44.4903 7.86275 44.6378 7.89344C44.7852 7.92414 44.925 7.98413 45.0488 8.06984C45.1726 8.15556 45.2779 8.26527 45.3586 8.39246C45.4392 8.51964 45.4935 8.66173 45.5182 8.81029C45.5429 8.95884 45.5375 9.11085 45.5024 9.25729C45.4673 9.40374 45.4031 9.54164 45.3137 9.66282C45.2243 9.78401 45.1115 9.88601 44.9819 9.96278C44.8524 10.0395 44.7087 10.0895 44.5595 10.1097C42.1565 10.5103 40.0764 9.89936 38.5745 8.55604L35.5201 11.2359L37.346 13.3218C37.5258 13.5269 37.625 13.7904 37.625 14.0632V19.1259C37.625 19.4243 37.5065 19.7105 37.2955 19.9215C37.0845 20.1325 36.7984 20.251 36.5 20.251C36.2016 20.251 35.9155 20.1325 35.7045 19.9215C35.4935 19.7105 35.375 19.4243 35.375 19.1259V14.4862L33.0901 11.8761L33.0406 11.8198C32.7706 11.5194 32.3206 11.0154 32.1249 10.4214C32.0056 10.0557 31.9674 9.63385 32.0968 9.18832C32.2205 8.7563 32.477 8.38954 32.7943 8.0779L32.81 8.06327L36.8521 4.24483C36.9895 4.11504 37.1574 4.02196 37.3402 3.97418C37.5231 3.9264 37.7151 3.92546 37.8984 3.97144ZM25.25 16.8758C25.25 15.9807 25.6056 15.1222 26.2385 14.4892C26.8714 13.8563 27.7299 13.5007 28.625 13.5007C29.5201 13.5007 30.3786 13.8563 31.0115 14.4892C31.6444 15.1222 32 15.9807 32 16.8758C32 17.771 31.6444 18.6295 31.0115 19.2624C30.3786 19.8954 29.5201 20.251 28.625 20.251C27.7299 20.251 26.8714 19.8954 26.2385 19.2624C25.6056 18.6295 25.25 17.771 25.25 16.8758ZM28.625 11.2506C27.1332 11.2506 25.7024 11.8432 24.6475 12.8982C23.5926 13.9531 23 15.3839 23 16.8758C23 18.3677 23.5926 19.7986 24.6475 20.8535C25.7024 21.9084 27.1332 22.5011 28.625 22.5011C30.1168 22.5011 31.5476 21.9084 32.6025 20.8535C33.6574 19.7986 34.25 18.3677 34.25 16.8758C34.25 15.3839 33.6574 13.9531 32.6025 12.8982C31.5476 11.8432 30.1168 11.2506 28.625 11.2506ZM41 16.8758C41 15.9807 41.3556 15.1222 41.9885 14.4892C42.6214 13.8563 43.4799 13.5007 44.375 13.5007C45.2701 13.5007 46.1286 13.8563 46.7615 14.4892C47.3944 15.1222 47.75 15.9807 47.75 16.8758C47.75 17.771 47.3944 18.6295 46.7615 19.2624C46.1286 19.8954 45.2701 20.251 44.375 20.251C43.4799 20.251 42.6214 19.8954 41.9885 19.2624C41.3556 18.6295 41 17.771 41 16.8758ZM44.375 11.2506C42.8832 11.2506 41.4524 11.8432 40.3975 12.8982C39.3426 13.9531 38.75 15.3839 38.75 16.8758C38.75 18.3677 39.3426 19.7986 40.3975 20.8535C41.4524 21.9084 42.8832 22.5011 44.375 22.5011C45.8668 22.5011 47.2976 21.9084 48.3525 20.8535C49.4074 19.7986 50 18.3677 50 16.8758C50 15.3839 49.4074 13.9531 48.3525 12.8982C47.2976 11.8432 45.8668 11.2506 44.375 11.2506Z" fill="#5DB075"/>
</svg>
