<svg width="73" height="52" viewBox="0 0 73 52" fill="none" xmlns="http://www.w3.org/2000/svg">
<path d="M25.0798 37H26.077L27.4545 32.0973H27.5056L28.8831 37H29.877L31.6956 30.4545H30.6537L29.3817 35.5266H29.3209L27.9946 30.4545H26.9655L25.6391 35.5234H25.5784L24.3032 30.4545H23.2645L25.0798 37ZM33.4646 37.1087C34.2764 37.1087 34.7334 36.6964 34.9156 36.3288H34.9539V37H35.8872V33.7401C35.8872 32.3114 34.7622 32.027 33.9823 32.027C33.0938 32.027 32.2757 32.3849 31.9561 33.2798L32.8541 33.4844C32.9948 33.136 33.3527 32.8004 33.9951 32.8004C34.6119 32.8004 34.9284 33.1232 34.9284 33.6793V33.7017C34.9284 34.0501 34.5704 34.0437 33.6883 34.146C32.7583 34.2546 31.8058 34.4975 31.8058 35.6129C31.8058 36.5781 32.5313 37.1087 33.4646 37.1087ZM33.6723 36.3416C33.1322 36.3416 32.7423 36.0987 32.7423 35.6257C32.7423 35.1143 33.1961 34.9322 33.749 34.8587C34.059 34.8171 34.7941 34.734 34.9316 34.5966V35.2294C34.9316 35.8111 34.4681 36.3416 33.6723 36.3416ZM40.8386 33.2894C40.6404 32.5256 40.0428 32.027 38.9817 32.027C37.8727 32.027 37.0865 32.6119 37.0865 33.4812C37.0865 34.1779 37.5083 34.6413 38.4288 34.8459L39.2598 35.0281C39.7328 35.1335 39.9533 35.3445 39.9533 35.6513C39.9533 36.0316 39.5474 36.3288 38.921 36.3288C38.3489 36.3288 37.9814 36.0827 37.8663 35.6001L36.9426 35.7408C37.1025 36.6101 37.8248 37.0991 38.9274 37.0991C40.1131 37.0991 40.9345 36.4695 40.9345 35.581C40.9345 34.8874 40.4934 34.4592 39.5922 34.2514L38.8123 34.0724C38.2722 33.9446 38.0389 33.7624 38.0421 33.43C38.0389 33.0529 38.448 32.7844 38.9913 32.7844C39.5858 32.7844 39.8606 33.1136 39.9725 33.4428L40.8386 33.2894ZM44.2767 32.0909H43.27V30.9148H42.3144V32.0909H41.5953V32.858H42.3144V35.7567C42.3112 36.6484 42.9919 37.0799 43.7462 37.0639C44.0498 37.0607 44.2544 37.0032 44.3662 36.9616L44.1936 36.1722C44.1297 36.185 44.0115 36.2138 43.858 36.2138C43.548 36.2138 43.27 36.1115 43.27 35.5586V32.858H44.2767V32.0909ZM47.3968 37.0991C48.4675 37.0991 49.225 36.5717 49.4423 35.7727L48.5378 35.6097C48.3652 36.0732 47.9498 36.3097 47.4064 36.3097C46.5882 36.3097 46.0385 35.7791 46.013 34.8331H49.503V34.4943C49.503 32.7205 48.4419 32.027 47.3297 32.027C45.9618 32.027 45.0605 33.0689 45.0605 34.5774C45.0605 36.1019 45.949 37.0991 47.3968 37.0991ZM46.0162 34.1172C46.0545 33.4205 46.5595 32.8164 47.3361 32.8164C48.0776 32.8164 48.5634 33.3661 48.5666 34.1172H46.0162Z" fill="#5DB075"/>
<path fill-rule="evenodd" clip-rule="evenodd" d="M32.8291 6.33233C32.8291 5.71359 33.0749 5.1202 33.5124 4.68269C33.9499 4.24518 34.5432 3.99939 35.1619 3.99939H37.4948C38.1135 3.99939 38.7068 4.24518 39.1443 4.68269C39.5818 5.1202 39.8276 5.71359 39.8276 6.33233V7.49879H44.4932C44.8026 7.49879 45.0993 7.62169 45.318 7.84045C45.5368 8.0592 45.6596 8.3559 45.6596 8.66526C45.6596 8.97463 45.5368 9.27132 45.318 9.49008C45.0993 9.70884 44.8026 9.83173 44.4932 9.83173H43.3268V21.4964C43.3268 22.4245 42.9582 23.3146 42.3019 23.9709C41.6457 24.6271 40.7556 24.9958 39.8276 24.9958H32.8291C31.9011 24.9958 31.011 24.6271 30.3548 23.9709C29.6986 23.3146 29.3299 22.4245 29.3299 21.4964V9.83173H28.1635C27.8541 9.83173 27.5574 9.70884 27.3387 9.49008C27.12 9.27132 26.9971 8.97463 26.9971 8.66526C26.9971 8.3559 27.12 8.0592 27.3387 7.84045C27.5574 7.62169 27.8541 7.49879 28.1635 7.49879H32.8291V6.33233ZM33.9955 9.83173H31.6627V21.4964C31.6627 21.8058 31.7856 22.1025 32.0043 22.3212C32.2231 22.54 32.5198 22.6629 32.8291 22.6629H39.8276C40.1369 22.6629 40.4336 22.54 40.6524 22.3212C40.8711 22.1025 40.994 21.8058 40.994 21.4964V9.83173H33.9955ZM37.4948 7.49879H35.1619V6.33233H37.4948V7.49879ZM33.9955 10.9982C34.3049 10.9982 34.6016 11.1211 34.8203 11.3398C35.0391 11.5586 35.1619 11.8553 35.1619 12.1647V20.3299C35.1619 20.6393 35.0391 20.936 34.8203 21.1548C34.6016 21.3735 34.3049 21.4964 33.9955 21.4964C33.6862 21.4964 33.3895 21.3735 33.1708 21.1548C32.952 20.936 32.8291 20.6393 32.8291 20.3299V12.1647C32.8291 11.8553 32.952 11.5586 33.1708 11.3398C33.3895 11.1211 33.6862 10.9982 33.9955 10.9982ZM38.6612 10.9982C38.9705 10.9982 39.2672 11.1211 39.486 11.3398C39.7047 11.5586 39.8276 11.8553 39.8276 12.1647V20.3299C39.8276 20.6393 39.7047 20.936 39.486 21.1548C39.2672 21.3735 38.9705 21.4964 38.6612 21.4964C38.3518 21.4964 38.0551 21.3735 37.8364 21.1548C37.6177 20.936 37.4948 20.6393 37.4948 20.3299V12.1647C37.4948 11.8553 37.6177 11.5586 37.8364 11.3398C38.0551 11.1211 38.3518 10.9982 38.6612 10.9982Z" fill="#5DB075"/>
</svg>
